<?xml version="1.0" encoding="UTF-8"?>
<!DOCTYPE svg PUBLIC "-//W3C//DTD SVG 1.1//EN" "http://www.w3.org/Graphics/SVG/1.1/DTD/svg11.dtd">
<svg xmlns="http://www.w3.org/2000/svg" version="1.1" width="360px" height="246px" style="shape-rendering:geometricPrecision; text-rendering:geometricPrecision; image-rendering:optimizeQuality; fill-rule:evenodd; clip-rule:evenodd" xmlns:xlink="http://www.w3.org/1999/xlink">
<g><path style="opacity:1" fill="#f5f5f5" d="M -0.5,-0.5 C 19.5,-0.5 39.5,-0.5 59.5,-0.5C 59.5,4.5 59.5,9.5 59.5,14.5C 54.5,14.5 49.5,14.5 44.5,14.5C 39.5,14.5 34.5,14.5 29.5,14.5C 29.5,19.5 29.5,24.5 29.5,29.5C 24.5,29.5 19.5,29.5 14.5,29.5C 14.5,34.5 14.5,39.5 14.5,44.5C 14.5,49.5 14.5,54.5 14.5,59.5C 9.5,59.5 4.5,59.5 -0.5,59.5C -0.5,39.5 -0.5,19.5 -0.5,-0.5 Z"/></g>
<g><path style="opacity:1" fill="#f8f8f8" d="M 59.5,-0.5 C 84.5,-0.5 109.5,-0.5 134.5,-0.5C 134.5,4.5 134.5,9.5 134.5,14.5C 139.5,14.5 144.5,14.5 149.5,14.5C 149.5,19.5 149.5,24.5 149.5,29.5C 144.5,29.5 139.5,29.5 134.5,29.5C 134.5,34.5 134.5,39.5 134.5,44.5C 139.944,43.8917 144.944,44.5583 149.5,46.5C 138.5,46.5 127.5,46.5 116.5,46.5C 116.5,37.8333 116.5,29.1667 116.5,20.5C 111.167,20.5 105.833,20.5 100.5,20.5C 99.4298,9.77516 93.4298,4.94183 82.5,6C 72.8617,9.6493 69.3617,16.4826 72,26.5C 73.6665,28.9957 75.4998,31.329 77.5,33.5C 77.0618,33.4346 76.7284,33.6012 76.5,34C 77.5707,34.8518 78.5707,35.6851 79.5,36.5C 73.1318,36.8297 66.7985,36.4963 60.5,35.5C 57.71,26.0502 51.3767,21.7169 41.5,22.5C 41.4524,21.4929 42.4524,21.1596 44.5,21.5C 44.5,19.1667 44.5,16.8333 44.5,14.5C 49.5,14.5 54.5,14.5 59.5,14.5C 59.5,9.5 59.5,4.5 59.5,-0.5 Z"/></g>
<g><path style="opacity:1" fill="#f3f1f1" d="M 134.5,-0.5 C 149.5,-0.5 164.5,-0.5 179.5,-0.5C 179.666,4.51108 179.499,9.51108 179,14.5C 178.667,13.8333 178.333,13.1667 178,12.5C 177.601,12.7284 177.435,13.0618 177.5,13.5C 172.236,7.04612 165.903,5.87945 158.5,10C 152.678,17.4135 153.345,24.0801 160.5,30C 170.532,33.4747 176.532,29.9747 178.5,19.5C 194.5,19.5 210.5,19.5 226.5,19.5C 226.5,34.1667 226.5,48.8333 226.5,63.5C 226.167,63.5 225.833,63.5 225.5,63.5C 225.5,49.1667 225.5,34.8333 225.5,20.5C 204.264,19.0543 193.931,19.3876 194.5,21.5C 194.5,24.1667 194.5,26.8333 194.5,29.5C 189.5,29.5 184.5,29.5 179.5,29.5C 179.5,34.5 179.5,39.5 179.5,44.5C 174.5,44.5 169.5,44.5 164.5,44.5C 164.5,49.5 164.5,54.5 164.5,59.5C 160.833,59.5 157.167,59.5 153.5,59.5C 153.827,69.6806 153.494,79.6806 152.5,89.5C 152.5,75.1667 152.5,60.8333 152.5,46.5C 151.5,46.5 150.5,46.5 149.5,46.5C 144.944,44.5583 139.944,43.8917 134.5,44.5C 134.5,39.5 134.5,34.5 134.5,29.5C 139.5,29.5 144.5,29.5 149.5,29.5C 149.5,24.5 149.5,19.5 149.5,14.5C 144.5,14.5 139.5,14.5 134.5,14.5C 134.5,9.5 134.5,4.5 134.5,-0.5 Z"/></g>
<g><path style="opacity:1" fill="#f7f2f3" d="M 179.5,-0.5 C 204.5,-0.5 229.5,-0.5 254.5,-0.5C 254.5,1.83333 254.5,4.16667 254.5,6.5C 246.698,4.63645 241.031,7.30312 237.5,14.5C 235.167,14.5 232.833,14.5 230.5,14.5C 228.916,31.5443 227.916,48.5443 227.5,65.5C 227.5,65.1667 227.5,64.8333 227.5,64.5C 227.5,49.1667 227.5,33.8333 227.5,18.5C 211.167,18.5 194.833,18.5 178.5,18.5C 178.371,16.7839 178.038,15.1172 177.5,13.5C 177.435,13.0618 177.601,12.7284 178,12.5C 178.333,13.1667 178.667,13.8333 179,14.5C 179.499,9.51108 179.666,4.51108 179.5,-0.5 Z"/></g>
<g><path style="opacity:1" fill="#df394b" d="M 177.5,13.5 C 178.038,15.1172 178.371,16.7839 178.5,18.5C 177.167,18.8333 177.167,19.1667 178.5,19.5C 176.532,29.9747 170.532,33.4747 160.5,30C 153.345,24.0801 152.678,17.4135 158.5,10C 165.903,5.87945 172.236,7.04612 177.5,13.5 Z"/></g>
<g><path style="opacity:1" fill="#3cc0b0" d="M 223.5,6.5 C 227.161,6.35012 228.161,7.85012 226.5,11C 227.448,11.4828 228.448,11.6495 229.5,11.5C 229.66,13.1992 229.494,14.8659 229,16.5C 228.667,15.8333 228.333,15.1667 228,14.5C 226.333,17.1667 224.667,17.1667 223,14.5C 222.692,15.3081 222.192,15.9747 221.5,16.5C 220.548,14.9547 220.215,13.288 220.5,11.5C 224.584,12.0547 225.251,11.0547 222.5,8.5C 222.863,7.81654 223.196,7.14987 223.5,6.5 Z"/></g>
<g><path style="opacity:1" fill="#f8f4f5" d="M 161.5,9.5 C 172.49,7.99179 177.324,12.6585 176,23.5C 173.081,29.0248 168.581,30.8581 162.5,29C 156.891,25.7231 155.058,20.8897 157,14.5C 158.366,12.6383 159.866,10.9717 161.5,9.5 Z"/></g>
<g><path style="opacity:1" fill="#75cdca" d="M 159.5,13.5 C 164.167,13.5 168.833,13.5 173.5,13.5C 173.5,17.1667 173.5,20.8333 173.5,24.5C 168.833,24.5 164.167,24.5 159.5,24.5C 159.5,20.8333 159.5,17.1667 159.5,13.5 Z"/></g>
<g><path style="opacity:1" fill="#f8f7f6" d="M 237.5,14.5 C 236.175,24.1458 240.175,29.8125 249.5,31.5C 249.5,46.1667 249.5,60.8333 249.5,75.5C 240.475,75.8315 231.475,75.4982 222.5,74.5C 221.82,73.1401 221.153,71.8068 220.5,70.5C 219.106,68.2918 217.106,66.7918 214.5,66C 218.821,65.501 223.154,65.3343 227.5,65.5C 227.916,48.5443 228.916,31.5443 230.5,14.5C 232.833,14.5 235.167,14.5 237.5,14.5 Z"/></g>
<g><path style="opacity:1" fill="#f4f4f5" d="M 254.5,-0.5 C 289.5,-0.5 324.5,-0.5 359.5,-0.5C 359.5,14.5 359.5,29.5 359.5,44.5C 354.5,44.5 349.5,44.5 344.5,44.5C 344.5,39.5 344.5,34.5 344.5,29.5C 339.5,29.5 334.5,29.5 329.5,29.5C 329.5,25.8333 329.5,22.1667 329.5,18.5C 311.167,18.5 292.833,18.5 274.5,18.5C 274.5,32.5 274.5,46.5 274.5,60.5C 266.833,60.5 259.167,60.5 251.5,60.5C 251.334,51.1607 251.5,41.8274 252,32.5C 262.54,29.0827 265.874,22.0827 262,11.5C 260.143,8.80017 257.643,7.1335 254.5,6.5C 254.5,4.16667 254.5,1.83333 254.5,-0.5 Z"/></g>
<g><path style="opacity:1" fill="#3d4dfe" d="M 277.5,13.5 C 285.413,14.5875 285.247,15.5875 277,16.5C 276.5,16.1667 276,15.8333 275.5,15.5C 276.243,14.8182 276.909,14.1515 277.5,13.5 Z"/></g>
<g><path style="opacity:1" fill="#d40415" d="M 178.5,18.5 C 194.833,18.5 211.167,18.5 227.5,18.5C 227.5,33.8333 227.5,49.1667 227.5,64.5C 226.833,64.5 226.5,64.1667 226.5,63.5C 226.5,48.8333 226.5,34.1667 226.5,19.5C 210.5,19.5 194.5,19.5 178.5,19.5C 177.167,19.1667 177.167,18.8333 178.5,18.5 Z"/></g>
<g><path style="opacity:1" fill="#ff2da0" d="M 157.5,35.5 C 158.837,36.3149 159.837,37.4815 160.5,39C 161.5,39.3333 162.5,39.6667 163.5,40C 161.926,41.8259 161.093,43.9925 161,46.5C 159,43.8333 157,43.8333 155,46.5C 154.86,43.7195 153.694,41.5528 151.5,40C 154.47,39.6921 156.47,38.1921 157.5,35.5 Z"/></g>
<g><path style="opacity:1" fill="#ae3876" d="M 41.5,22.5 C 51.3767,21.7169 57.71,26.0502 60.5,35.5C 66.7985,36.4963 73.1318,36.8297 79.5,36.5C 79.5,46.1667 79.5,55.8333 79.5,65.5C 78.1667,65.8333 78.1667,66.1667 79.5,66.5C 79.5,78.5 79.5,90.5 79.5,102.5C 79.5,104.5 79.5,106.5 79.5,108.5C 78.8333,108.5 78.1667,108.5 77.5,108.5C 77.5,94.5 77.5,80.5 77.5,66.5C 77.5,66.1667 77.5,65.8333 77.5,65.5C 77.5,56.5 77.5,47.5 77.5,38.5C 71.8236,38.3339 66.1569,38.5006 60.5,39C 57.8144,49.3482 51.1477,53.6815 40.5,52C 30.2773,46.7051 27.7773,38.8718 33,28.5C 35.3218,25.6047 38.1552,23.6047 41.5,22.5 Z"/></g>
<g><path style="opacity:1" fill="#f9f7f7" d="M 41.5,24.5 C 56.259,24.6902 61.0923,31.6902 56,45.5C 51.0018,50.6067 45.1685,51.7734 38.5,49C 32.888,44.8244 31.0547,39.3244 33,32.5C 35.0738,28.9231 37.9072,26.2565 41.5,24.5 Z"/></g>
<g><path style="opacity:1" fill="#3aaef9" d="M 36.5,31.5 C 41.8333,31.5 47.1667,31.5 52.5,31.5C 52.5,35.1667 52.5,38.8333 52.5,42.5C 47.4889,42.6659 42.4889,42.4993 37.5,42C 36.5442,38.6064 36.2108,35.1064 36.5,31.5 Z"/></g>
<g><path style="opacity:1" fill="#f4f4f4" d="M 119.5,48.5 C 124.305,49.4872 129.305,49.8205 134.5,49.5C 134.5,52.8333 134.5,56.1667 134.5,59.5C 139.5,59.5 144.5,59.5 149.5,59.5C 149.5,64.5 149.5,69.5 149.5,74.5C 144.5,74.5 139.5,74.5 134.5,74.5C 134.5,79.5 134.5,84.5 134.5,89.5C 129.5,89.5 124.5,89.5 119.5,89.5C 119.806,86.6146 119.473,83.9479 118.5,81.5C 127.673,71.9766 127.673,62.4766 118.5,53C 106.455,46.3727 96.9554,48.8727 90,60.5C 89.5065,62.1341 89.3398,63.8008 89.5,65.5C 86.1667,65.5 82.8333,65.5 79.5,65.5C 79.5,55.8333 79.5,46.1667 79.5,36.5C 78.5707,35.6851 77.5707,34.8518 76.5,34C 76.7284,33.6012 77.0618,33.4346 77.5,33.5C 85.9223,37.3387 93.0889,35.672 99,28.5C 100.128,26.6547 100.628,24.6547 100.5,22.5C 105.167,22.5 109.833,22.5 114.5,22.5C 114.5,31.1667 114.5,39.8333 114.5,48.5C 116.167,48.5 117.833,48.5 119.5,48.5 Z"/></g>
<g><path style="opacity:1" fill="#7209bc" d="M 119.5,37.5 C 120.5,37.5 121.5,37.5 122.5,37.5C 122.5,38.5 122.5,39.5 122.5,40.5C 121.5,40.5 120.5,40.5 119.5,40.5C 119.5,39.5 119.5,38.5 119.5,37.5 Z"/></g>
<g><path style="opacity:1" fill="#ffcc1c" d="M 86.5,39.5 C 89.7916,39.1196 92.1249,40.4529 93.5,43.5C 94.325,44.3857 95.325,44.719 96.5,44.5C 96.7035,46.3904 96.0368,47.8904 94.5,49C 92.788,50.7509 90.788,51.4175 88.5,51C 88.8333,50.6667 89.1667,50.3333 89.5,50C 84.0556,47.256 83.0556,43.756 86.5,39.5 Z"/></g>
<g><path style="opacity:1" fill="#f98033" d="M 301.5,74.5 C 301.5,79.8333 301.5,85.1667 301.5,90.5C 293.167,90.5 284.833,90.5 276.5,90.5C 276.5,89.8333 276.5,89.1667 276.5,88.5C 284.167,88.5 291.833,88.5 299.5,88.5C 299.5,78.8333 299.5,69.1667 299.5,59.5C 285.029,57.2481 279.529,48.9148 283,34.5C 289.697,23.271 298.864,20.771 310.5,27C 318.899,35.3837 319.732,44.5503 313,54.5C 309.706,57.397 305.872,59.0637 301.5,59.5C 301.5,64.5 301.5,69.5 301.5,74.5 Z"/></g>
<g><path style="opacity:1" fill="#7209bc" d="M 117.5,41.5 C 119.833,41.5 122.167,41.5 124.5,41.5C 124.657,42.8734 124.49,44.2068 124,45.5C 123.667,44.8333 123.333,44.1667 123,43.5C 121.667,46.1667 120.333,46.1667 119,43.5C 118.667,44.1667 118.333,44.8333 118,45.5C 117.51,44.2068 117.343,42.8734 117.5,41.5 Z"/></g>
<g><path style="opacity:1" fill="#fbb078" d="M 235.5,38.5 C 238.287,37.5233 241.287,37.19 244.5,37.5C 244.5,40.8333 244.5,44.1667 244.5,47.5C 237.469,47.4812 237.136,46.9812 243.5,46C 242.552,45.5172 241.552,45.3505 240.5,45.5C 240.404,41.6893 239.738,41.6893 238.5,45.5C 238.167,45 237.833,44.5 237.5,44C 238.148,42.5603 238.481,41.0603 238.5,39.5C 239.5,39.5 240.5,39.5 241.5,39.5C 242.961,44.7866 243.628,44.4533 243.5,38.5C 240.833,38.5 238.167,38.5 235.5,38.5 Z"/></g>
<g><path style="opacity:1" fill="#f2f1f2" d="M 44.5,14.5 C 44.5,16.8333 44.5,19.1667 44.5,21.5C 42.4524,21.1596 41.4524,21.4929 41.5,22.5C 38.1552,23.6047 35.3218,25.6047 33,28.5C 27.7773,38.8718 30.2773,46.7051 40.5,52C 51.1477,53.6815 57.8144,49.3482 60.5,39C 66.1569,38.5006 71.8236,38.3339 77.5,38.5C 77.5,47.5 77.5,56.5 77.5,65.5C 61.1667,65.5 44.8333,65.5 28.5,65.5C 28.1667,65.5 27.8333,65.5 27.5,65.5C 27.5,65.1667 27.5,64.8333 27.5,64.5C 43.8333,64.5 60.1667,64.5 76.5,64.5C 76.83,57.8002 76.4967,51.1335 75.5,44.5C 74.513,47.7683 74.1796,51.1016 74.5,54.5C 72.549,54.7733 71.049,54.1066 70,52.5C 68.1413,53.5791 66.6413,54.9124 65.5,56.5C 64.4502,56.9046 64.4502,57.5712 65.5,58.5C 63.604,59.4656 61.604,59.7989 59.5,59.5C 59.5,60.8333 59.5,62.1667 59.5,63.5C 54.5,63.5 49.5,63.5 44.5,63.5C 44.5,62.1667 44.5,60.8333 44.5,59.5C 39.5,59.5 34.5,59.5 29.5,59.5C 29.5,54.5 29.5,49.5 29.5,44.5C 24.5,44.5 19.5,44.5 14.5,44.5C 14.5,39.5 14.5,34.5 14.5,29.5C 19.5,29.5 24.5,29.5 29.5,29.5C 29.5,24.5 29.5,19.5 29.5,14.5C 34.5,14.5 39.5,14.5 44.5,14.5 Z"/></g>
<g><path style="opacity:1" fill="#f7f7f7" d="M 313.5,74.5 C 309.5,74.5 305.5,74.5 301.5,74.5C 301.5,69.5 301.5,64.5 301.5,59.5C 305.872,59.0637 309.706,57.397 313,54.5C 319.732,44.5503 318.899,35.3837 310.5,27C 298.864,20.771 289.697,23.271 283,34.5C 279.529,48.9148 285.029,57.2481 299.5,59.5C 299.5,69.1667 299.5,78.8333 299.5,88.5C 291.833,88.5 284.167,88.5 276.5,88.5C 276.5,84.1667 276.5,79.8333 276.5,75.5C 268.167,75.5 259.833,75.5 251.5,75.5C 251.5,71.1667 251.5,66.8333 251.5,62.5C 259.833,62.5 268.167,62.5 276.5,62.5C 276.5,48.5 276.5,34.5 276.5,20.5C 293.5,20.5 310.5,20.5 327.5,20.5C 327.5,32.8333 327.5,45.1667 327.5,57.5C 317.815,58.8637 313.149,64.5304 313.5,74.5 Z"/></g>
<g><path style="opacity:1" fill="#fbfbfb" d="M 14.5,44.5 C 19.5,44.5 24.5,44.5 29.5,44.5C 29.5,49.5 29.5,54.5 29.5,59.5C 34.5,59.5 39.5,59.5 44.5,59.5C 44.5,60.8333 44.5,62.1667 44.5,63.5C 49.5,63.5 54.5,63.5 59.5,63.5C 59.5,62.1667 59.5,60.8333 59.5,59.5C 61.604,59.7989 63.604,59.4656 65.5,58.5C 64.4502,57.5712 64.4502,56.9046 65.5,56.5C 66.1614,57.7175 66.8281,59.0508 67.5,60.5C 69.0421,59.2532 70.5421,59.2532 72,60.5C 72.2359,58.1887 73.0693,56.1887 74.5,54.5C 74.1796,51.1016 74.513,47.7683 75.5,44.5C 76.4967,51.1335 76.83,57.8002 76.5,64.5C 60.1667,64.5 43.8333,64.5 27.5,64.5C 26.5206,67.6248 26.1872,70.9581 26.5,74.5C 17.5,74.5 8.5,74.5 -0.5,74.5C -0.5,69.5 -0.5,64.5 -0.5,59.5C 4.5,59.5 9.5,59.5 14.5,59.5C 14.5,54.5 14.5,49.5 14.5,44.5 Z"/></g>
<g><path style="opacity:1" fill="#fe9739" d="M 74.5,54.5 C 73.0693,56.1887 72.2359,58.1887 72,60.5C 70.5421,59.2532 69.0421,59.2532 67.5,60.5C 66.8281,59.0508 66.1614,57.7175 65.5,56.5C 66.6413,54.9124 68.1413,53.5791 70,52.5C 71.049,54.1066 72.549,54.7733 74.5,54.5 Z"/></g>
<g><path style="opacity:1" fill="#f7f7f7" d="M 225.5,63.5 C 208.833,63.5 192.167,63.5 175.5,63.5C 175.5,72.8333 175.5,82.1667 175.5,91.5C 167.427,92.1318 159.76,91.4651 152.5,89.5C 153.494,79.6806 153.827,69.6806 153.5,59.5C 157.167,59.5 160.833,59.5 164.5,59.5C 164.5,54.5 164.5,49.5 164.5,44.5C 169.5,44.5 174.5,44.5 179.5,44.5C 179.5,39.5 179.5,34.5 179.5,29.5C 184.5,29.5 189.5,29.5 194.5,29.5C 194.5,26.8333 194.5,24.1667 194.5,21.5C 193.931,19.3876 204.264,19.0543 225.5,20.5C 225.5,34.8333 225.5,49.1667 225.5,63.5 Z"/></g>
<g><path style="opacity:1" fill="#6382fd" d="M 213.5,53.5 C 215.804,54.4983 218.137,54.665 220.5,54C 221.747,55.4936 221.747,56.9936 220.5,58.5C 219.808,57.9747 219.308,57.3081 219,56.5C 217.333,59.1667 215.667,59.1667 214,56.5C 213.667,57.1667 213.333,57.8333 213,58.5C 212.36,56.735 212.527,55.0683 213.5,53.5 Z"/></g>
<g><path style="opacity:1" fill="#567afd" d="M 215.5,48.5 C 217.912,48.6941 218.912,50.0274 218.5,52.5C 217.167,52.5 215.833,52.5 214.5,52.5C 214.433,51.0413 214.766,49.7079 215.5,48.5 Z"/></g>
<g><path style="opacity:1" fill="#a6ebb1" d="M 213.5,21.5 C 215.39,21.2965 216.89,21.9632 218,23.5C 220.139,26.495 221.639,29.8283 222.5,33.5C 219.509,33.6703 217.509,32.337 216.5,29.5C 216.709,28.914 217.043,28.414 217.5,28C 214.13,26.7267 212.797,24.56 213.5,21.5 Z"/></g>
<g><path style="opacity:1" fill="#fbac70" d="M 174.5,48.5 C 179.167,48.5 183.833,48.5 188.5,48.5C 188.666,52.8461 188.499,57.1794 188,61.5C 183.667,62.8333 179.333,62.8333 175,61.5C 174.501,57.1794 174.334,52.8461 174.5,48.5 Z"/></g>
<g><path style="opacity:1" fill="#f8f5f2" d="M 175.5,49.5 C 179.167,49.5 182.833,49.5 186.5,49.5C 186.5,51.8333 186.5,54.1667 186.5,56.5C 185.167,56.5 183.833,56.5 182.5,56.5C 182.5,57.5 182.5,58.5 182.5,59.5C 183.873,59.3433 185.207,59.51 186.5,60C 182.848,60.4986 179.182,60.6653 175.5,60.5C 175.5,56.8333 175.5,53.1667 175.5,49.5 Z"/></g>
<g><path style="opacity:1" fill="#f98a3c" d="M 176.5,56.5 C 177.833,56.5 179.167,56.5 180.5,56.5C 180.5,57.5 180.5,58.5 180.5,59.5C 179.167,59.5 177.833,59.5 176.5,59.5C 176.5,58.5 176.5,57.5 176.5,56.5 Z"/></g>
<g><path style="opacity:1" fill="#faa465" d="M 179.5,50.5 C 180.833,50.5 182.167,50.5 183.5,50.5C 182.167,57.1667 180.833,57.1667 179.5,50.5 Z"/></g>
<g><path style="opacity:1" fill="#37b3af" d="M 254.5,6.5 C 257.643,7.1335 260.143,8.80017 262,11.5C 265.874,22.0827 262.54,29.0827 252,32.5C 251.5,41.8274 251.334,51.1607 251.5,60.5C 259.167,60.5 266.833,60.5 274.5,60.5C 274.5,46.5 274.5,32.5 274.5,18.5C 292.833,18.5 311.167,18.5 329.5,18.5C 329.5,22.1667 329.5,25.8333 329.5,29.5C 329.168,38.5246 329.502,47.5246 330.5,56.5C 339.736,58.9743 344.069,64.9743 343.5,74.5C 339.36,86.7225 331.36,89.8891 319.5,84C 316.864,81.2271 314.864,78.0605 313.5,74.5C 313.149,64.5304 317.815,58.8637 327.5,57.5C 327.5,45.1667 327.5,32.8333 327.5,20.5C 310.5,20.5 293.5,20.5 276.5,20.5C 276.5,34.5 276.5,48.5 276.5,62.5C 268.167,62.5 259.833,62.5 251.5,62.5C 251.5,66.8333 251.5,71.1667 251.5,75.5C 251.5,76.1667 251.5,76.8333 251.5,77.5C 251.5,77.8333 251.5,78.1667 251.5,78.5C 250.833,78.1667 250.167,77.8333 249.5,77.5C 249.5,76.8333 249.5,76.1667 249.5,75.5C 249.5,60.8333 249.5,46.1667 249.5,31.5C 240.175,29.8125 236.175,24.1458 237.5,14.5C 241.031,7.30312 246.698,4.63645 254.5,6.5 Z"/></g>
<g><path style="opacity:1" fill="#f5f5f6" d="M 325.5,58.5 C 340.522,59.5581 345.022,66.8914 339,80.5C 331.653,86.1296 324.653,85.7963 318,79.5C 313.705,70.0877 316.205,63.0877 325.5,58.5 Z"/></g>
<g><path style="opacity:1" fill="#fe6ae2" d="M 259.5,49.5 C 261.466,50.2545 261.8,51.4212 260.5,53C 262.167,53.3333 263.833,53.6667 265.5,54C 264.74,55.4411 264.074,56.9411 263.5,58.5C 260.047,59.1714 256.713,59.3381 253.5,59C 252.62,57.6439 252.286,56.1439 252.5,54.5C 256.851,55.467 259.185,53.8004 259.5,49.5 Z"/></g>
<g><path style="opacity:1" fill="#f4f4f3" d="M 294.5,25.5 C 309.285,24.1209 316.451,30.7876 316,45.5C 310.44,57.7978 301.607,60.9645 289.5,55C 280.161,43.1711 281.828,33.3378 294.5,25.5 Z"/></g>
<g><path style="opacity:1" fill="#1b96fe" d="M 300.5,31.5 C 303.983,30.9159 306.983,31.7492 309.5,34C 306.902,36.9595 303.568,38.2928 299.5,38C 295.31,41.0834 294.643,44.7501 297.5,49C 297.327,51.0208 296.66,52.8541 295.5,54.5C 290.741,52.3465 289.241,48.6799 291,43.5C 293.68,39.0006 296.847,35.0006 300.5,31.5 Z"/></g>
<g><path style="opacity:1" fill="#1f9bfe" d="M 317.5,23.5 C 321.686,23.8868 324.519,25.8868 326,29.5C 321.727,32.4613 318.56,31.4613 316.5,26.5C 317.127,25.5832 317.461,24.5832 317.5,23.5 Z"/></g>
<g><path style="opacity:1" fill="#f6f4f4" d="M 246.5,7.5 C 260.376,7.26312 264.876,13.5965 260,26.5C 252.182,32.6075 245.515,31.6075 240,23.5C 238.062,16.3891 240.229,11.0558 246.5,7.5 Z"/></g>
<g><path style="opacity:1" fill="#dc383b" d="M 249.5,10.5 C 258.385,11.1041 260.385,14.9375 255.5,22C 252.773,22.8184 250.106,22.6517 247.5,21.5C 246.011,15.6539 248.344,13.3206 254.5,14.5C 254.338,16.5273 254.505,18.5273 255,20.5C 257.648,14.1376 255.481,11.6376 248.5,13C 244.943,16.1815 244.609,19.6815 247.5,23.5C 248.939,24.0634 250.439,24.3968 252,24.5C 254.402,24.3148 256.569,23.8148 258.5,23C 253.081,27.8477 248.248,27.3477 244,21.5C 243.176,16.4818 245.009,12.8152 249.5,10.5 Z"/></g>
<g><path style="opacity:1" fill="#f0ecee" d="M 249.5,15.5 C 250.5,15.5 251.5,15.5 252.5,15.5C 252.872,18.0217 252.039,20.0217 250,21.5C 248.311,19.6804 248.145,17.6804 249.5,15.5 Z"/></g>
<g><path style="opacity:1" fill="#dd2d46" d="M 225.5,63.5 C 225.833,63.5 226.167,63.5 226.5,63.5C 226.5,64.1667 226.833,64.5 227.5,64.5C 227.5,64.8333 227.5,65.1667 227.5,65.5C 223.154,65.3343 218.821,65.501 214.5,66C 217.106,66.7918 219.106,68.2918 220.5,70.5C 219.833,70.5 219.5,70.8333 219.5,71.5C 216.367,67.9222 212.367,66.5889 207.5,67.5C 207.158,66.6618 206.492,66.3284 205.5,66.5C 196.014,65.5062 186.348,65.1729 176.5,65.5C 176.5,74.1667 176.5,82.8333 176.5,91.5C 176.167,91.5 175.833,91.5 175.5,91.5C 175.5,82.1667 175.5,72.8333 175.5,63.5C 192.167,63.5 208.833,63.5 225.5,63.5 Z"/></g>
<g><path style="opacity:1" fill="#f7f7f7" d="M 27.5,64.5 C 27.5,64.8333 27.5,65.1667 27.5,65.5C 27.5,90.5 27.5,115.5 27.5,140.5C 22.7092,141.624 20.0425,144.624 19.5,149.5C 18.7784,149.918 18.2784,150.584 18,151.5C 17.2904,150.027 16.1238,149.36 14.5,149.5C 14.2213,154.595 14.5546,159.595 15.5,164.5C 14.8333,164.5 14.5,164.833 14.5,165.5C 9.59467,164.555 4.59467,164.221 -0.5,164.5C -0.5,134.5 -0.5,104.5 -0.5,74.5C 8.5,74.5 17.5,74.5 26.5,74.5C 26.1872,70.9581 26.5206,67.6248 27.5,64.5 Z"/></g>
<g><path style="opacity:1" fill="#ffcd21" d="M 40.5,67.5 C 41.5,67.5 42.5,67.5 43.5,67.5C 43.5,68.8333 43.5,70.1667 43.5,71.5C 41.4352,71.5172 39.4352,71.8505 37.5,72.5C 38.7515,70.9991 39.7515,69.3325 40.5,67.5 Z"/></g>
<g><path style="opacity:1" fill="#f0f1f2" d="M 29.5,67.5 C 45.3246,66.5036 61.3246,66.1703 77.5,66.5C 77.5,80.5 77.5,94.5 77.5,108.5C 73.5,108.5 69.5,108.5 65.5,108.5C 65.5,107.167 65.5,105.833 65.5,104.5C 68.5,104.5 71.5,104.5 74.5,104.5C 74.5,99.5 74.5,94.5 74.5,89.5C 69.5,89.5 64.5,89.5 59.5,89.5C 59.5,84.5 59.5,79.5 59.5,74.5C 54.5,74.5 49.5,74.5 44.5,74.5C 44.5,79.5 44.5,84.5 44.5,89.5C 40.1667,89.5 35.8333,89.5 31.5,89.5C 31.2367,85.3998 31.5701,81.3998 32.5,77.5C 34.2161,77.6287 35.8828,77.962 37.5,78.5C 36.8592,77.5178 36.1925,76.5178 35.5,75.5C 36.1925,74.4822 36.8592,73.4822 37.5,72.5C 39.4352,71.8505 41.4352,71.5172 43.5,71.5C 43.5,70.1667 43.5,68.8333 43.5,67.5C 42.5,67.5 41.5,67.5 40.5,67.5C 36.8333,67.5 33.1667,67.5 29.5,67.5 Z"/></g>
<g><path style="opacity:1" fill="#f8f7f7" d="M 119.5,48.5 C 129.833,48.5 140.167,48.5 150.5,48.5C 150.5,59.8333 150.5,71.1667 150.5,82.5C 149.833,82.1667 149.167,81.8333 148.5,81.5C 148.67,82.8221 148.337,83.9887 147.5,85C 145.073,85.9023 142.74,86.7356 140.5,87.5C 144.82,88.2506 148.153,86.9173 150.5,83.5C 150.5,86.1667 150.5,88.8333 150.5,91.5C 137.833,91.5 125.167,91.5 112.5,91.5C 112.5,97.1667 112.5,102.833 112.5,108.5C 104.5,108.5 96.5,108.5 88.5,108.5C 88.5,106.5 88.5,104.5 88.5,102.5C 85.7237,102.911 85.057,102.078 86.5,100C 85.6667,97.5 84.1667,97 82,98.5C 81.3162,99.7839 81.4829,100.951 82.5,102C 81.552,102.483 80.552,102.649 79.5,102.5C 79.5,90.5 79.5,78.5 79.5,66.5C 82.5184,66.3354 85.5184,66.502 88.5,67C 90.4628,79.634 97.7962,85.634 110.5,85C 113.31,84.0936 115.976,82.9269 118.5,81.5C 119.473,83.9479 119.806,86.6146 119.5,89.5C 124.5,89.5 129.5,89.5 134.5,89.5C 134.5,84.5 134.5,79.5 134.5,74.5C 139.5,74.5 144.5,74.5 149.5,74.5C 149.5,69.5 149.5,64.5 149.5,59.5C 144.5,59.5 139.5,59.5 134.5,59.5C 134.5,56.1667 134.5,52.8333 134.5,49.5C 129.305,49.8205 124.305,49.4872 119.5,48.5 Z"/></g>
<g><path style="opacity:1" fill="#2f2587" d="M 28.5,65.5 C 44.8333,65.5 61.1667,65.5 77.5,65.5C 77.5,65.8333 77.5,66.1667 77.5,66.5C 61.3246,66.1703 45.3246,66.5036 29.5,67.5C 29.5,88.5 29.5,109.5 29.5,130.5C 28.5027,109.006 28.1693,87.3398 28.5,65.5 Z"/></g>
<g><path style="opacity:1" fill="#ffcf29" d="M 37.5,72.5 C 36.8592,73.4822 36.1925,74.4822 35.5,75.5C 36.1925,76.5178 36.8592,77.5178 37.5,78.5C 35.8828,77.962 34.2161,77.6287 32.5,77.5C 31.5655,76.4324 31.2322,75.099 31.5,73.5C 33.5648,73.4828 35.5648,73.1495 37.5,72.5 Z"/></g>
<g><path style="opacity:1" fill="#eceaee" d="M 207.5,67.5 C 212.367,66.5889 216.367,67.9222 219.5,71.5C 222.556,82.9407 218.222,88.1074 206.5,87C 200.891,83.7231 199.058,78.8897 201,72.5C 202.777,70.2101 204.944,68.5434 207.5,67.5 Z"/></g>
<g><path style="opacity:1" fill="#4f4699" d="M 210.5,69.5 C 218.372,70.9022 219.372,74.4022 213.5,80C 209.216,82.4533 205.549,81.7866 202.5,78C 205.506,75.4879 208.173,72.6545 210.5,69.5 Z"/></g>
<g><path style="opacity:1" fill="#f9f9f9" d="M 329.5,29.5 C 334.5,29.5 339.5,29.5 344.5,29.5C 344.5,34.5 344.5,39.5 344.5,44.5C 349.5,44.5 354.5,44.5 359.5,44.5C 359.5,59.5 359.5,74.5 359.5,89.5C 354.5,89.5 349.5,89.5 344.5,89.5C 344.821,84.3054 344.487,79.3054 343.5,74.5C 344.069,64.9743 339.736,58.9743 330.5,56.5C 329.502,47.5246 329.168,38.5246 329.5,29.5 Z"/></g>
<g><path style="opacity:1" fill="#5a68fe" d="M 288.5,74.5 C 289.995,74.4148 290.995,75.0815 291.5,76.5C 286.729,79.6365 285.729,78.9698 288.5,74.5 Z"/></g>
<g><path style="opacity:1" fill="#e45462" d="M 326.5,65.5 C 327.097,64.8614 327.93,64.528 329,64.5C 332.152,65.9104 335.319,67.2438 338.5,68.5C 337.668,71.161 336.834,73.8276 336,76.5C 331.189,76.3558 326.356,77.0224 321.5,78.5C 320.916,75.3301 320.25,72.1635 319.5,69C 320.737,65.9569 323.07,64.7902 326.5,65.5 Z"/></g>
<g><path style="opacity:1" fill="#fefafb" d="M 332.5,67.5 C 336.915,68.6771 337.581,71.0104 334.5,74.5C 333.056,72.3921 332.39,70.0588 332.5,67.5 Z"/></g>
<g><path style="opacity:1" fill="#f1f2f2" d="M 326.5,65.5 C 327.833,65.5 329.167,65.5 330.5,65.5C 331.092,68.1272 331.425,70.7938 331.5,73.5C 328.687,73.5481 326.021,74.2147 323.5,75.5C 322.051,73.3894 321.051,71.0561 320.5,68.5C 322.594,67.4824 324.594,66.4824 326.5,65.5 Z"/></g>
<g><path style="opacity:1" fill="#41e6fe" d="M 156.5,76.5 C 161.488,77.3174 164.822,80.1507 166.5,85C 166.167,85.5 165.833,86 165.5,86.5C 163.117,82.4585 160.117,79.1252 156.5,76.5 Z"/></g>
<g><path style="opacity:1" fill="#e14337" d="M 251.5,75.5 C 259.833,75.5 268.167,75.5 276.5,75.5C 276.5,79.8333 276.5,84.1667 276.5,88.5C 276.5,89.1667 276.5,89.8333 276.5,90.5C 276.5,92.1667 276.5,93.8333 276.5,95.5C 276.062,96.5063 275.396,96.5063 274.5,95.5C 274.5,93.8333 274.5,92.1667 274.5,90.5C 267.167,89.8333 259.833,89.1667 252.5,88.5C 259.833,88.5 267.167,88.5 274.5,88.5C 274.5,84.8333 274.5,81.1667 274.5,77.5C 266.833,77.5 259.167,77.5 251.5,77.5C 251.5,76.8333 251.5,76.1667 251.5,75.5 Z"/></g>
<g><path style="opacity:1" fill="#f6f5f5" d="M 205.5,66.5 C 198.62,70.4159 196.787,76.0826 200,83.5C 207,91.5 214,91.5 221,83.5C 222.128,81.6547 222.628,79.6547 222.5,77.5C 231.5,77.5 240.5,77.5 249.5,77.5C 249.5,81.1667 249.5,84.8333 249.5,88.5C 241.5,88.5 233.5,88.5 225.5,88.5C 225.833,105.846 225.5,123.179 224.5,140.5C 219.339,142.822 217.339,146.822 218.5,152.5C 217.691,150.708 217.191,148.708 217,146.5C 216.517,147.448 216.351,148.448 216.5,149.5C 214.167,149.5 211.833,149.5 209.5,149.5C 209.5,154.5 209.5,159.5 209.5,164.5C 204.5,164.5 199.5,164.5 194.5,164.5C 194.5,159.5 194.5,154.5 194.5,149.5C 191.833,149.5 189.167,149.5 186.5,149.5C 184.413,145.412 181.08,143.412 176.5,143.5C 176.5,126.833 176.5,110.167 176.5,93.5C 180.167,93.5 183.833,93.5 187.5,93.5C 187.5,99.8333 187.5,106.167 187.5,112.5C 180.985,112.85 177.652,116.35 177.5,123C 179.617,132.56 185.284,135.56 194.5,132C 201.346,125.264 201.013,118.93 193.5,113C 192.207,112.51 190.873,112.343 189.5,112.5C 189.825,105.313 189.491,98.3134 188.5,91.5C 184.5,91.5 180.5,91.5 176.5,91.5C 176.5,82.8333 176.5,74.1667 176.5,65.5C 186.348,65.1729 196.014,65.5062 205.5,66.5 Z"/></g>
<g><path style="opacity:1" fill="#f8faf9" d="M 251.5,77.5 C 259.167,77.5 266.833,77.5 274.5,77.5C 274.5,81.1667 274.5,84.8333 274.5,88.5C 267.167,88.5 259.833,88.5 252.5,88.5C 252.167,88.5 251.833,88.5 251.5,88.5C 251.5,85.1667 251.5,81.8333 251.5,78.5C 251.5,78.1667 251.5,77.8333 251.5,77.5 Z"/></g>
<g><path style="opacity:1" fill="#e45866" d="M 148.5,81.5 C 145.213,80.8386 141.88,80.3386 138.5,80C 141.5,79.3333 144.5,79.3333 147.5,80C 148.056,80.3826 148.389,80.8826 148.5,81.5 Z"/></g>
<g><path style="opacity:1" fill="#4f4498" d="M 118.5,81.5 C 115.976,82.9269 113.31,84.0936 110.5,85C 97.7962,85.634 90.4628,79.634 88.5,67C 85.5184,66.502 82.5184,66.3354 79.5,66.5C 78.1667,66.1667 78.1667,65.8333 79.5,65.5C 82.8333,65.5 86.1667,65.5 89.5,65.5C 89.3398,63.8008 89.5065,62.1341 90,60.5C 96.9554,48.8727 106.455,46.3727 118.5,53C 127.673,62.4766 127.673,71.9766 118.5,81.5 Z"/></g>
<g><path style="opacity:1" fill="#f5f4f6" d="M 103.5,50.5 C 117.754,50.3578 124.254,57.3578 123,71.5C 119.235,81.4686 112.068,85.3019 101.5,83C 90.0875,76.7565 87.5875,67.9232 94,56.5C 96.8426,53.8373 100.009,51.8373 103.5,50.5 Z"/></g>
<g><path style="opacity:1" fill="#413120" d="M 98.5,71.5 C 99.2216,71.9175 99.7216,72.5842 100,73.5C 101.779,72.5209 103.445,72.8542 105,74.5C 106.333,74.5 107.667,74.5 109,74.5C 110.555,72.8542 112.221,72.5209 114,73.5C 115.087,71.0684 115.587,71.4017 115.5,74.5C 110.176,77.0689 104.843,77.0689 99.5,74.5C 98.6143,73.675 98.281,72.675 98.5,71.5 Z"/></g>
<g><path style="opacity:1" fill="#936d1f" d="M 104.5,64.5 C 105.082,65.9311 105.915,67.2644 107,68.5C 107.278,67.5842 107.778,66.9175 108.5,66.5C 113.577,63.901 116.244,65.7343 116.5,72C 116.472,73.0698 116.139,73.9032 115.5,74.5C 115.587,71.4017 115.087,71.0684 114,73.5C 112.221,72.5209 110.555,72.8542 109,74.5C 107.667,74.5 106.333,74.5 105,74.5C 103.445,72.8542 101.779,72.5209 100,73.5C 99.7216,72.5842 99.2216,71.9175 98.5,71.5C 98.0197,66.9832 100.02,64.6498 104.5,64.5 Z"/></g>
<g><path style="opacity:1" fill="#dab089" d="M 110.5,60.5 C 109.833,62.5 109.167,64.5 108.5,66.5C 107.778,66.9175 107.278,67.5842 107,68.5C 105.915,67.2644 105.082,65.9311 104.5,64.5C 104.567,63.0413 104.234,61.7079 103.5,60.5C 105.833,55.1667 108.167,55.1667 110.5,60.5 Z"/></g>
<g><path style="opacity:1" fill="#51463e" d="M 110.5,60.5 C 108.167,55.1667 105.833,55.1667 103.5,60.5C 103.541,54.7649 105.874,53.4316 110.5,56.5C 111.705,57.9948 111.705,59.3281 110.5,60.5 Z"/></g>
<g><path style="opacity:1" fill="#526ffe" d="M 281.5,79.5 C 282.873,79.3433 284.207,79.51 285.5,80C 284.167,80.6667 284.167,81.3333 285.5,82C 283.055,82.9098 281.722,82.0764 281.5,79.5 Z"/></g>
<g><path style="opacity:1" fill="#e6616d" d="M 148.5,81.5 C 149.167,81.8333 149.833,82.1667 150.5,82.5C 150.5,82.8333 150.5,83.1667 150.5,83.5C 148.153,86.9173 144.82,88.2506 140.5,87.5C 142.74,86.7356 145.073,85.9023 147.5,85C 148.337,83.9887 148.67,82.8221 148.5,81.5 Z"/></g>
<g><path style="opacity:1" fill="#0a32ff" d="M 288.5,84.5 C 290.337,84.6395 290.67,85.3061 289.5,86.5C 288.702,86.0431 288.369,85.3764 288.5,84.5 Z"/></g>
<g><path style="opacity:1" fill="#e6565f" d="M 140.5,87.5 C 139.828,88.2674 138.995,88.9341 138,89.5C 137.383,88.5509 137.549,87.7175 138.5,87C 136.671,85.8867 135.837,84.3867 136,82.5C 137.736,84.0632 139.236,85.7299 140.5,87.5 Z"/></g>
<g><path style="opacity:1" fill="#db3034" d="M 205.5,66.5 C 206.492,66.3284 207.158,66.6618 207.5,67.5C 204.944,68.5434 202.777,70.2101 201,72.5C 199.058,78.8897 200.891,83.7231 206.5,87C 218.222,88.1074 222.556,82.9407 219.5,71.5C 219.5,70.8333 219.833,70.5 220.5,70.5C 221.153,71.8068 221.82,73.1401 222.5,74.5C 231.475,75.4982 240.475,75.8315 249.5,75.5C 249.5,76.1667 249.5,76.8333 249.5,77.5C 240.5,77.5 231.5,77.5 222.5,77.5C 222.628,79.6547 222.128,81.6547 221,83.5C 214,91.5 207,91.5 200,83.5C 196.787,76.0826 198.62,70.4159 205.5,66.5 Z"/></g>
<g><path style="opacity:1" fill="#fafafb" d="M 29.5,67.5 C 33.1667,67.5 36.8333,67.5 40.5,67.5C 39.7515,69.3325 38.7515,70.9991 37.5,72.5C 35.5648,73.1495 33.5648,73.4828 31.5,73.5C 31.2322,75.099 31.5655,76.4324 32.5,77.5C 31.5701,81.3998 31.2367,85.3998 31.5,89.5C 35.8333,89.5 40.1667,89.5 44.5,89.5C 44.5,84.5 44.5,79.5 44.5,74.5C 49.5,74.5 54.5,74.5 59.5,74.5C 59.5,79.5 59.5,84.5 59.5,89.5C 64.5,89.5 69.5,89.5 74.5,89.5C 74.5,94.5 74.5,99.5 74.5,104.5C 71.5,104.5 68.5,104.5 65.5,104.5C 63.0266,101.196 60.0266,98.3622 56.5,96C 41.9478,94.5521 35.4478,101.052 37,115.5C 44.218,127.175 53.0513,128.508 63.5,119.5C 67.1667,119.5 70.8333,119.5 74.5,119.5C 74.5,124.5 74.5,129.5 74.5,134.5C 69.5,134.5 64.5,134.5 59.5,134.5C 59.5,139.5 59.5,144.5 59.5,149.5C 54.5,149.5 49.5,149.5 44.5,149.5C 44.5,144.5 44.5,139.5 44.5,134.5C 39.5,134.5 34.5,134.5 29.5,134.5C 29.5,133.167 29.5,131.833 29.5,130.5C 29.5,109.5 29.5,88.5 29.5,67.5 Z"/></g>
<g><path style="opacity:1" fill="#ffce29" d="M 37.5,78.5 C 39.4352,79.1495 41.4352,79.4828 43.5,79.5C 43.5,80.8333 43.5,82.1667 43.5,83.5C 40.4744,83.1625 38.4744,81.4959 37.5,78.5 Z"/></g>
<g><path style="opacity:1" fill="#f6a466" d="M 251.5,88.5 C 251.833,88.5 252.167,88.5 252.5,88.5C 259.833,89.1667 267.167,89.8333 274.5,90.5C 267.167,90.5 259.833,90.5 252.5,90.5C 251.662,90.1583 251.328,89.4916 251.5,88.5 Z"/></g>
<g><path style="opacity:1" fill="#f4f4f4" d="M 301.5,74.5 C 305.5,74.5 309.5,74.5 313.5,74.5C 314.864,78.0605 316.864,81.2271 319.5,84C 331.36,89.8891 339.36,86.7225 343.5,74.5C 344.487,79.3054 344.821,84.3054 344.5,89.5C 349.5,89.5 354.5,89.5 359.5,89.5C 359.5,104.5 359.5,119.5 359.5,134.5C 354.5,134.5 349.5,134.5 344.5,134.5C 344.5,129.5 344.5,124.5 344.5,119.5C 339.5,119.5 334.5,119.5 329.5,119.5C 329.182,114.968 329.515,110.634 330.5,106.5C 330.56,107.043 330.893,107.376 331.5,107.5C 333.776,106.787 336.109,106.287 338.5,106C 340.466,104.653 340.799,103.153 339.5,101.5C 338.508,99.9735 337.008,99.3068 335,99.5C 333.615,99.5143 332.449,99.8476 331.5,100.5C 328.664,100.837 327.998,102.171 329.5,104.5C 328.167,104.5 326.833,104.5 325.5,104.5C 325.5,101.833 325.5,99.1667 325.5,96.5C 309.342,95.5036 293.009,95.1702 276.5,95.5C 276.5,93.8333 276.5,92.1667 276.5,90.5C 284.833,90.5 293.167,90.5 301.5,90.5C 301.5,85.1667 301.5,79.8333 301.5,74.5 Z"/></g>
<g><path style="opacity:1" fill="#ea2527" d="M 302.5,87.5 C 306.167,87.5 309.833,87.5 313.5,87.5C 313.5,89.8333 313.5,92.1667 313.5,94.5C 309.833,94.5 306.167,94.5 302.5,94.5C 302.5,92.1667 302.5,89.8333 302.5,87.5 Z"/></g>
<g><path style="opacity:1" fill="#ef979d" d="M 104.5,86.5 C 106.262,86.3573 107.929,86.6906 109.5,87.5C 112.044,95.1299 109.877,97.1299 103,93.5C 102.167,90.829 102.667,88.4957 104.5,86.5 Z"/></g>
<g><path style="opacity:1" fill="#7fcbc7" d="M 249.5,77.5 C 250.167,77.8333 250.833,78.1667 251.5,78.5C 251.5,81.8333 251.5,85.1667 251.5,88.5C 251.328,89.4916 251.662,90.1583 252.5,90.5C 252.5,92.1667 252.5,93.8333 252.5,95.5C 259.833,95.5 267.167,95.5 274.5,95.5C 275.396,96.5063 276.062,96.5063 276.5,95.5C 293.009,95.1702 309.342,95.5036 325.5,96.5C 309.497,96.3334 293.497,96.5001 277.5,97C 293.005,97.1686 308.339,97.6686 323.5,98.5C 307.833,98.5 292.167,98.5 276.5,98.5C 276.062,97.4937 275.396,97.4937 274.5,98.5C 266.493,98.6664 258.493,98.4997 250.5,98C 249.565,95.6194 249.232,93.1194 249.5,90.5C 249.5,89.8333 249.5,89.1667 249.5,88.5C 249.5,84.8333 249.5,81.1667 249.5,77.5 Z"/></g>
<g><path style="opacity:1" fill="#f8f8f8" d="M 252.5,90.5 C 259.833,90.5 267.167,90.5 274.5,90.5C 274.5,92.1667 274.5,93.8333 274.5,95.5C 267.167,95.5 259.833,95.5 252.5,95.5C 252.5,93.8333 252.5,92.1667 252.5,90.5 Z"/></g>
<g><path style="opacity:1" fill="#2295fe" d="M 149.5,46.5 C 150.5,46.5 151.5,46.5 152.5,46.5C 152.5,60.8333 152.5,75.1667 152.5,89.5C 159.76,91.4651 167.427,92.1318 175.5,91.5C 175.833,91.5 176.167,91.5 176.5,91.5C 180.5,91.5 184.5,91.5 188.5,91.5C 188.672,92.4916 188.338,93.1583 187.5,93.5C 183.833,93.5 180.167,93.5 176.5,93.5C 176.167,93.5 175.833,93.5 175.5,93.5C 166.833,93.5 158.167,93.5 149.5,93.5C 137.833,93.5 126.167,93.5 114.5,93.5C 114.5,98.5 114.5,103.5 114.5,108.5C 119.167,108.5 123.833,108.5 128.5,108.5C 128.168,119.187 128.501,129.854 129.5,140.5C 133.739,142.067 136.072,145.067 136.5,149.5C 135.869,156.967 131.869,160.134 124.5,159C 120.097,156.377 118.431,152.543 119.5,147.5C 120.263,143.615 122.596,141.281 126.5,140.5C 127.494,130.347 127.828,120.014 127.5,109.5C 111.325,109.17 95.3246,109.504 79.5,110.5C 78.8333,110.5 78.1667,110.5 77.5,110.5C 73.7016,109.517 69.7016,109.183 65.5,109.5C 65.69,113.032 65.0233,116.365 63.5,119.5C 53.0513,128.508 44.218,127.175 37,115.5C 35.4478,101.052 41.9478,94.5521 56.5,96C 60.0266,98.3622 63.0266,101.196 65.5,104.5C 65.5,105.833 65.5,107.167 65.5,108.5C 69.5,108.5 73.5,108.5 77.5,108.5C 78.1667,108.5 78.8333,108.5 79.5,108.5C 82.5,108.5 85.5,108.5 88.5,108.5C 96.5,108.5 104.5,108.5 112.5,108.5C 112.5,102.833 112.5,97.1667 112.5,91.5C 125.167,91.5 137.833,91.5 150.5,91.5C 150.5,88.8333 150.5,86.1667 150.5,83.5C 150.5,83.1667 150.5,82.8333 150.5,82.5C 150.5,71.1667 150.5,59.8333 150.5,48.5C 140.167,48.5 129.833,48.5 119.5,48.5C 117.833,48.5 116.167,48.5 114.5,48.5C 114.5,39.8333 114.5,31.1667 114.5,22.5C 109.833,22.5 105.167,22.5 100.5,22.5C 100.628,24.6547 100.128,26.6547 99,28.5C 93.0889,35.672 85.9223,37.3387 77.5,33.5C 75.4998,31.329 73.6665,28.9957 72,26.5C 69.3617,16.4826 72.8617,9.6493 82.5,6C 93.4298,4.94183 99.4298,9.77516 100.5,20.5C 105.833,20.5 111.167,20.5 116.5,20.5C 116.5,29.1667 116.5,37.8333 116.5,46.5C 127.5,46.5 138.5,46.5 149.5,46.5 Z"/></g>
<g><path style="opacity:1" fill="#f2f4f4" d="M 82.5,7.5 C 89.1231,6.65056 94.2897,8.98389 98,14.5C 100.803,28.699 94.9698,34.8656 80.5,33C 73.8625,28.9834 71.6958,23.1501 74,15.5C 76.0738,11.9231 78.9072,9.25648 82.5,7.5 Z"/></g>
<g><path style="opacity:1" fill="#fa9a57" d="M 79.5,21.5 C 75.6754,18.8493 76.0088,16.3493 80.5,14C 84.7612,12.6374 89.0946,12.3041 93.5,13C 98.0848,18.0568 97.0848,21.7235 90.5,24C 91.6956,24.6543 91.6956,25.1543 90.5,25.5C 88.7419,24.8721 87.2419,23.8721 86,22.5C 83.328,25.3199 81.1613,24.9865 79.5,21.5 Z"/></g>
<g><path style="opacity:1" fill="#fefcfb" d="M 87.5,15.5 C 89.1638,17.6791 88.8305,19.5125 86.5,21C 84.1902,21.4966 81.8568,21.6633 79.5,21.5C 77.4679,17.3407 78.8013,15.0074 83.5,14.5C 84.8492,14.8457 86.1825,15.179 87.5,15.5 Z"/></g>
<g><path style="opacity:1" fill="#f1f3f3" d="M 87.5,15.5 C 87.3893,14.8826 87.056,14.3826 86.5,14C 91.8471,12.3838 94.6804,14.2172 95,19.5C 92.9973,21.9221 90.4973,22.7554 87.5,22C 90.1339,19.7067 90.1339,17.54 87.5,15.5 Z"/></g>
<g><path style="opacity:1" fill="#f6d2ed" d="M 178.5,94.5 C 179.319,97.3054 179.819,100.305 180,103.5C 184.686,101.85 186.686,103.516 186,108.5C 183.667,111.167 181.333,111.167 179,108.5C 178.501,103.845 178.334,99.1785 178.5,94.5 Z"/></g>
<g><path style="opacity:1" fill="#ffd546" d="M 209.5,98.5 C 210.893,95.9829 212.893,94.3163 215.5,93.5C 215.5,94.8333 215.5,96.1667 215.5,97.5C 213.435,97.5172 211.435,97.8505 209.5,98.5 Z"/></g>
<g><path style="opacity:1" fill="#f2f3f3" d="M 45.5,97.5 C 62.3414,96.8818 67.508,104.215 61,119.5C 52.1185,125.949 44.7852,124.616 39,115.5C 36.3679,107.765 38.5345,101.765 45.5,97.5 Z"/></g>
<g><path style="opacity:1" fill="#ffd134" d="M 209.5,98.5 C 208.859,99.4822 208.193,100.482 207.5,101.5C 208.193,102.518 208.859,103.518 209.5,104.5C 201.5,102.5 201.5,100.5 209.5,98.5 Z"/></g>
<g><path style="opacity:1" fill="#5cea69" d="M 331.5,100.5 C 332.449,99.8476 333.615,99.5143 335,99.5C 337.008,99.3068 338.508,99.9735 339.5,101.5C 336.904,100.735 334.237,100.401 331.5,100.5 Z"/></g>
<g><path style="opacity:1" fill="#fcfdfc" d="M 331.5,100.5 C 334.237,100.401 336.904,100.735 339.5,101.5C 339.586,102.496 339.252,103.329 338.5,104C 336.567,104.251 334.734,104.751 333,105.5C 330.676,104.225 330.176,102.558 331.5,100.5 Z"/></g>
<g><path style="opacity:1" fill="#80e989" d="M 331.5,100.5 C 330.176,102.558 330.676,104.225 333,105.5C 334.734,104.751 336.567,104.251 338.5,104C 339.252,103.329 339.586,102.496 339.5,101.5C 340.799,103.153 340.466,104.653 338.5,106C 336.109,106.287 333.776,106.787 331.5,107.5C 330.893,107.376 330.56,107.043 330.5,106.5C 330.938,106.565 331.272,106.399 331.5,106C 330.584,105.722 329.918,105.222 329.5,104.5C 327.998,102.171 328.664,100.837 331.5,100.5 Z"/></g>
<g><path style="opacity:1" fill="#26b1ad" d="M 51.5,98.5 C 54.3409,99.6884 55.0076,101.688 53.5,104.5C 55.7427,105.474 58.076,105.808 60.5,105.5C 60.4242,108.973 59.7576,112.306 58.5,115.5C 54.7604,115.759 51.0938,115.426 47.5,114.5C 45.8071,116.279 43.8071,116.779 41.5,116C 40.5495,112.943 40.2161,109.777 40.5,106.5C 47.3875,108.641 51.0542,105.974 51.5,98.5 Z"/></g>
<g><path style="opacity:1" fill="#58d55c" d="M 88.5,108.5 C 85.5,108.5 82.5,108.5 79.5,108.5C 79.5,106.5 79.5,104.5 79.5,102.5C 80.552,102.649 81.552,102.483 82.5,102C 81.4829,100.951 81.3162,99.7839 82,98.5C 84.1667,97 85.6667,97.5 86.5,100C 85.057,102.078 85.7237,102.911 88.5,102.5C 88.5,104.5 88.5,106.5 88.5,108.5 Z"/></g>
<g><path style="opacity:1" fill="#faf7f7" d="M 149.5,93.5 C 158.167,93.5 166.833,93.5 175.5,93.5C 175.833,110.18 175.499,126.847 174.5,143.5C 171.059,145.036 169.059,147.702 168.5,151.5C 167.533,150.194 166.199,149.527 164.5,149.5C 164.5,144.5 164.5,139.5 164.5,134.5C 159.5,134.5 154.5,134.5 149.5,134.5C 149.5,129.5 149.5,124.5 149.5,119.5C 154.5,119.5 159.5,119.5 164.5,119.5C 164.5,114.5 164.5,109.5 164.5,104.5C 159.5,104.5 154.5,104.5 149.5,104.5C 149.5,100.833 149.5,97.1667 149.5,93.5 Z"/></g>
<g><path style="opacity:1" fill="#faf8f8" d="M 276.5,98.5 C 292.167,98.5 307.833,98.5 323.5,98.5C 323.833,112.516 323.499,126.516 322.5,140.5C 314.915,146.265 314.582,152.432 321.5,159C 324.261,159.722 326.927,159.555 329.5,158.5C 329.737,159.791 329.404,160.791 328.5,161.5C 321.22,160.149 315.22,162.149 310.5,167.5C 309.226,166.811 309.226,165.977 310.5,165C 306.848,164.501 303.182,164.335 299.5,164.5C 299.5,159.5 299.5,154.5 299.5,149.5C 304.5,149.5 309.5,149.5 314.5,149.5C 314.5,144.5 314.5,139.5 314.5,134.5C 309.5,134.5 304.5,134.5 299.5,134.5C 299.5,129.5 299.5,124.5 299.5,119.5C 294.5,119.5 289.5,119.5 284.5,119.5C 284.5,114.5 284.5,109.5 284.5,104.5C 281.833,104.5 279.167,104.5 276.5,104.5C 276.5,102.5 276.5,100.5 276.5,98.5 Z"/></g>
<g><path style="opacity:1" fill="#ffd240" d="M 209.5,104.5 C 211.435,105.15 213.435,105.483 215.5,105.5C 215.5,106.833 215.5,108.167 215.5,109.5C 212.893,108.684 210.893,107.017 209.5,104.5 Z"/></g>
<g><path style="opacity:1" fill="#36a0fe" d="M 188.5,91.5 C 189.491,98.3134 189.825,105.313 189.5,112.5C 190.873,112.343 192.207,112.51 193.5,113C 201.013,118.93 201.346,125.264 194.5,132C 185.284,135.56 179.617,132.56 177.5,123C 177.652,116.35 180.985,112.85 187.5,112.5C 187.5,106.167 187.5,99.8333 187.5,93.5C 188.338,93.1583 188.672,92.4916 188.5,91.5 Z"/></g>
<g><path style="opacity:1" fill="#f9f4f1" d="M 255.5,108.5 C 266.344,107.501 270.511,112.168 268,122.5C 262.468,127.787 256.968,127.787 251.5,122.5C 249.794,116.952 251.127,112.286 255.5,108.5 Z"/></g>
<g><path style="opacity:1" fill="#f97b29" d="M 251.5,122.5 C 256.968,127.787 262.468,127.787 268,122.5C 270.511,112.168 266.344,107.501 255.5,108.5C 261.562,105.577 266.395,107.244 270,113.5C 270.923,125.898 265.423,130.064 253.5,126C 252.177,125.184 251.511,124.017 251.5,122.5 Z"/></g>
<g><path style="opacity:1" fill="#f8f8f8" d="M 79.5,110.5 C 95.1667,110.5 110.833,110.5 126.5,110.5C 126.5,120.5 126.5,130.5 126.5,140.5C 122.596,141.281 120.263,143.615 119.5,147.5C 118.698,148.952 118.198,150.618 118,152.5C 117.517,151.552 117.351,150.552 117.5,149.5C 113.167,149.5 108.833,149.5 104.5,149.5C 104.5,154.5 104.5,159.5 104.5,164.5C 108.749,164.317 112.749,164.317 116.5,164.5C 115.206,165.29 114.039,166.29 113,167.5C 109.488,173.86 105.988,180.194 102.5,186.5C 97.337,179.513 92.6703,172.18 88.5,164.5C 89.6111,159.584 89.7777,154.584 89,149.5C 89.0533,152.675 88.22,155.342 86.5,157.5C 88.1626,152.975 87.4959,148.808 84.5,145C 82.9751,143.991 81.3084,143.491 79.5,143.5C 79.5,132.5 79.5,121.5 79.5,110.5 Z"/></g>
<g><path style="opacity:1" fill="#71c2fc" d="M 79.5,110.5 C 95.3246,109.504 111.325,109.17 127.5,109.5C 127.828,120.014 127.494,130.347 126.5,140.5C 126.5,130.5 126.5,120.5 126.5,110.5C 110.833,110.5 95.1667,110.5 79.5,110.5 Z"/></g>
<g><path style="opacity:1" fill="#b43f81" d="M 257.5,110.5 C 259.167,110.5 260.833,110.5 262.5,110.5C 262.083,113.079 262.75,115.246 264.5,117C 260.535,119.76 261.201,121.26 266.5,121.5C 262.167,122.833 257.833,122.833 253.5,121.5C 255.423,120.692 257.423,120.192 259.5,120C 258.167,119 256.833,118 255.5,117C 257.25,115.246 257.917,113.079 257.5,110.5 Z"/></g>
<g><path style="opacity:1" fill="#f5f5f5" d="M 149.5,93.5 C 149.5,97.1667 149.5,100.833 149.5,104.5C 154.5,104.5 159.5,104.5 164.5,104.5C 164.5,109.5 164.5,114.5 164.5,119.5C 159.5,119.5 154.5,119.5 149.5,119.5C 149.5,124.5 149.5,129.5 149.5,134.5C 154.5,134.5 159.5,134.5 164.5,134.5C 164.5,139.5 164.5,144.5 164.5,149.5C 164.5,154.5 164.5,159.5 164.5,164.5C 159.5,164.5 154.5,164.5 149.5,164.5C 149.5,159.5 149.5,154.5 149.5,149.5C 145.167,149.5 140.833,149.5 136.5,149.5C 136.072,145.067 133.739,142.067 129.5,140.5C 128.501,129.854 128.168,119.187 128.5,108.5C 123.833,108.5 119.167,108.5 114.5,108.5C 114.5,103.5 114.5,98.5 114.5,93.5C 126.167,93.5 137.833,93.5 149.5,93.5 Z"/></g>
<g><path style="opacity:1" fill="#fd983e" d="M 121.5,103.5 C 123.117,102.962 124.784,102.629 126.5,102.5C 126.5,101.5 126.5,100.5 126.5,99.5C 126.435,99.0618 126.601,98.7284 127,98.5C 127.396,100.96 128.563,102.96 130.5,104.5C 127.086,104.55 123.586,105.217 120,106.5C 119.5,106.167 119,105.833 118.5,105.5C 119.602,104.824 120.602,104.158 121.5,103.5 Z"/></g>
<g><path style="opacity:1" fill="#fcfbfb" d="M 126.5,99.5 C 126.5,100.5 126.5,101.5 126.5,102.5C 124.784,102.629 123.117,102.962 121.5,103.5C 120.5,103.5 119.5,103.5 118.5,103.5C 118.643,101.738 118.309,100.071 117.5,98.5C 120.044,97.5742 122.544,96.5742 125,95.5C 125.21,97.0581 125.71,98.3915 126.5,99.5 Z"/></g>
<g><path style="opacity:1" fill="#f0efee" d="M 184.5,113.5 C 194.535,113.032 198.702,117.698 197,127.5C 191.333,134.167 185.667,134.167 180,127.5C 178.311,121.655 179.811,116.988 184.5,113.5 Z"/></g>
<g><path style="opacity:1" fill="#f6f7f6" d="M 249.5,90.5 C 249.232,93.1194 249.565,95.6194 250.5,98C 258.493,98.4997 266.493,98.6664 274.5,98.5C 274.5,110.5 274.5,122.5 274.5,134.5C 262.833,134.5 251.167,134.5 239.5,134.5C 235.5,134.5 231.5,134.5 227.5,134.5C 227.5,129.5 227.5,124.5 227.5,119.5C 234.841,119.334 242.174,119.5 249.5,120C 250.066,120.995 250.733,121.828 251.5,122.5C 251.511,124.017 252.177,125.184 253.5,126C 265.423,130.064 270.923,125.898 270,113.5C 266.395,107.244 261.562,105.577 255.5,108.5C 251.277,109.931 249.277,112.931 249.5,117.5C 242.167,117.5 234.833,117.5 227.5,117.5C 227.5,108.5 227.5,99.5 227.5,90.5C 234.833,90.5 242.167,90.5 249.5,90.5 Z"/></g>
<g><path style="opacity:1" fill="#84e68e" d="M 232.5,110.5 C 228.936,105.017 230.602,102.35 237.5,102.5C 239.577,103.937 241.91,104.604 244.5,104.5C 244.725,108.056 243.892,108.39 242,105.5C 241.5,105.833 241,106.167 240.5,106.5C 241.098,107.795 241.598,109.128 242,110.5C 242.333,109.833 242.667,109.167 243,108.5C 243.49,109.793 243.657,111.127 243.5,112.5C 240.496,111.332 237.496,111.332 234.5,112.5C 233.287,112.253 232.62,111.586 232.5,110.5 Z"/></g>
<g><path style="opacity:1" fill="#f4fbf8" d="M 232.5,110.5 C 232.714,108.856 232.38,107.356 231.5,106C 233.339,104.868 235.339,104.035 237.5,103.5C 240.635,108.863 238.969,111.196 232.5,110.5 Z"/></g>
<g><path style="opacity:1" fill="#443629" d="M 184.5,121.5 C 186.825,122.655 187.992,124.655 188,127.5C 189.319,125.75 189.819,123.75 189.5,121.5C 193.395,121.857 194.395,123.857 192.5,127.5C 189.188,128.618 185.855,128.618 182.5,127.5C 182.604,125.297 183.27,123.297 184.5,121.5 Z"/></g>
<g><path style="opacity:1" fill="#fd8f23" d="M 313.5,122.5 C 315.792,122.244 317.959,122.577 320,123.5C 320.638,126.93 319.138,128.263 315.5,127.5C 315.719,128.675 315.386,129.675 314.5,130.5C 313.52,127.914 313.187,125.247 313.5,122.5 Z"/></g>
<g><path style="opacity:1" fill="#f3efe4" d="M 315.5,123.5 C 317.337,123.639 317.67,124.306 316.5,125.5C 315.702,125.043 315.369,124.376 315.5,123.5 Z"/></g>
<g><path style="opacity:1" fill="#fa9a52" d="M 307.5,127.5 C 308.5,127.5 309.5,127.5 310.5,127.5C 310.5,128.5 310.5,129.5 310.5,130.5C 309.5,130.5 308.5,130.5 307.5,130.5C 307.5,129.5 307.5,128.5 307.5,127.5 Z"/></g>
<g><path style="opacity:1" fill="#f6f4f4" d="M 239.5,134.5 C 251.167,134.5 262.833,134.5 274.5,134.5C 274.5,137.5 274.5,140.5 274.5,143.5C 271.358,143.799 269.191,145.466 268,148.5C 265.633,156.118 268.3,160.785 276,162.5C 279.83,161.826 282.664,159.826 284.5,156.5C 284.5,159.167 284.5,161.833 284.5,164.5C 278.463,164.171 272.463,164.504 266.5,165.5C 261.807,172.518 257.141,179.518 252.5,186.5C 248.262,179.698 244.262,172.698 240.5,165.5C 245.07,164.559 249.737,164.226 254.5,164.5C 254.5,159.5 254.5,154.5 254.5,149.5C 249.5,149.5 244.5,149.5 239.5,149.5C 239.5,144.5 239.5,139.5 239.5,134.5 Z"/></g>
<g><path style="opacity:1" fill="#5c53a0" d="M 27.5,65.5 C 27.8333,65.5 28.1667,65.5 28.5,65.5C 28.1693,87.3398 28.5027,109.006 29.5,130.5C 29.5,131.833 29.5,133.167 29.5,134.5C 29.5,136.833 29.5,139.167 29.5,141.5C 35.5261,143.208 37.6928,147.208 36,153.5C 31.1225,160.885 25.7892,161.218 20,154.5C 19.5065,152.866 19.3398,151.199 19.5,149.5C 20.0425,144.624 22.7092,141.624 27.5,140.5C 27.5,115.5 27.5,90.5 27.5,65.5 Z"/></g>
<g><path style="opacity:1" fill="#f97f2e" d="M 249.5,88.5 C 249.5,89.1667 249.5,89.8333 249.5,90.5C 242.167,90.5 234.833,90.5 227.5,90.5C 227.5,99.5 227.5,108.5 227.5,117.5C 234.833,117.5 242.167,117.5 249.5,117.5C 249.277,112.931 251.277,109.931 255.5,108.5C 251.127,112.286 249.794,116.952 251.5,122.5C 250.733,121.828 250.066,120.995 249.5,120C 242.174,119.5 234.841,119.334 227.5,119.5C 227.5,124.5 227.5,129.5 227.5,134.5C 227.201,136.604 227.534,138.604 228.5,140.5C 236.57,145.088 237.57,150.922 231.5,158C 225.219,160.522 220.885,158.688 218.5,152.5C 217.339,146.822 219.339,142.822 224.5,140.5C 225.5,123.179 225.833,105.846 225.5,88.5C 233.5,88.5 241.5,88.5 249.5,88.5 Z"/></g>
<g><path style="opacity:1" fill="#0fada9" d="M 325.5,96.5 C 325.5,99.1667 325.5,101.833 325.5,104.5C 325.5,116.5 325.5,128.5 325.5,140.5C 329.09,140.544 331.59,142.211 333,145.5C 334.461,150.674 333.294,155.007 329.5,158.5C 326.927,159.555 324.261,159.722 321.5,159C 314.582,152.432 314.915,146.265 322.5,140.5C 323.499,126.516 323.833,112.516 323.5,98.5C 308.339,97.6686 293.005,97.1686 277.5,97C 293.497,96.5001 309.497,96.3334 325.5,96.5 Z"/></g>
<g><path style="opacity:1" fill="#d92d32" d="M 276.5,98.5 C 276.5,100.5 276.5,102.5 276.5,104.5C 276.5,117.5 276.5,130.5 276.5,143.5C 283.417,144.971 286.084,149.305 284.5,156.5C 282.664,159.826 279.83,161.826 276,162.5C 268.3,160.785 265.633,156.118 268,148.5C 269.191,145.466 271.358,143.799 274.5,143.5C 274.5,140.5 274.5,137.5 274.5,134.5C 274.5,122.5 274.5,110.5 274.5,98.5C 275.396,97.4937 276.062,97.4937 276.5,98.5 Z"/></g>
<g><path style="opacity:1" fill="#a81b6f" d="M 77.5,110.5 C 78.1667,110.5 78.8333,110.5 79.5,110.5C 79.5,121.5 79.5,132.5 79.5,143.5C 81.3084,143.491 82.9751,143.991 84.5,145C 87.4959,148.808 88.1626,152.975 86.5,157.5C 83.2496,162.49 78.9162,163.657 73.5,161C 67.399,153.438 68.5657,147.271 77,142.5C 77.4998,131.839 77.6665,121.172 77.5,110.5 Z"/></g>
<g><path style="opacity:1" fill="#db1f40" d="M 175.5,93.5 C 175.833,93.5 176.167,93.5 176.5,93.5C 176.5,110.167 176.5,126.833 176.5,143.5C 181.08,143.412 184.413,145.412 186.5,149.5C 187.259,158.351 183.259,162.684 174.5,162.5C 170.261,160.162 168.261,156.495 168.5,151.5C 169.059,147.702 171.059,145.036 174.5,143.5C 175.499,126.847 175.833,110.18 175.5,93.5 Z"/></g>
<g><path style="opacity:1" fill="#f5f5f5" d="M 77.5,110.5 C 77.6665,121.172 77.4998,131.839 77,142.5C 68.5657,147.271 67.399,153.438 73.5,161C 78.9162,163.657 83.2496,162.49 86.5,157.5C 88.22,155.342 89.0533,152.675 89,149.5C 89.7777,154.584 89.6111,159.584 88.5,164.5C 82.1579,164.334 75.8246,164.5 69.5,165C 64.1176,172.271 59.1176,179.771 54.5,187.5C 50.1307,181.26 46.2974,174.593 43,167.5C 41.5,166 40,164.5 38.5,163C 34.3243,162.573 30.1576,162.073 26,161.5C 22.1786,161.691 18.6786,162.691 15.5,164.5C 14.5546,159.595 14.2213,154.595 14.5,149.5C 16.1238,149.36 17.2904,150.027 18,151.5C 18.2784,150.584 18.7784,149.918 19.5,149.5C 19.3398,151.199 19.5065,152.866 20,154.5C 25.7892,161.218 31.1225,160.885 36,153.5C 37.6928,147.208 35.5261,143.208 29.5,141.5C 29.5,139.167 29.5,136.833 29.5,134.5C 34.5,134.5 39.5,134.5 44.5,134.5C 44.5,139.5 44.5,144.5 44.5,149.5C 49.5,149.5 54.5,149.5 59.5,149.5C 59.5,144.5 59.5,139.5 59.5,134.5C 64.5,134.5 69.5,134.5 74.5,134.5C 74.5,129.5 74.5,124.5 74.5,119.5C 70.8333,119.5 67.1667,119.5 63.5,119.5C 65.0233,116.365 65.69,113.032 65.5,109.5C 69.7016,109.183 73.7016,109.517 77.5,110.5 Z"/></g>
<g><path style="opacity:1" fill="#f3f2f2" d="M 276.5,104.5 C 279.167,104.5 281.833,104.5 284.5,104.5C 284.5,109.5 284.5,114.5 284.5,119.5C 289.5,119.5 294.5,119.5 299.5,119.5C 299.5,124.5 299.5,129.5 299.5,134.5C 304.5,134.5 309.5,134.5 314.5,134.5C 314.5,139.5 314.5,144.5 314.5,149.5C 309.5,149.5 304.5,149.5 299.5,149.5C 299.5,154.5 299.5,159.5 299.5,164.5C 303.182,164.335 306.848,164.501 310.5,165C 309.226,165.977 309.226,166.811 310.5,167.5C 307.071,174.032 303.404,180.366 299.5,186.5C 294.5,179.167 289.5,171.833 284.5,164.5C 284.5,161.833 284.5,159.167 284.5,156.5C 286.084,149.305 283.417,144.971 276.5,143.5C 276.5,130.5 276.5,117.5 276.5,104.5 Z"/></g>
<g><path style="opacity:1" fill="#f7f8f8" d="M 325.5,104.5 C 326.833,104.5 328.167,104.5 329.5,104.5C 329.918,105.222 330.584,105.722 331.5,106C 331.272,106.399 330.938,106.565 330.5,106.5C 329.515,110.634 329.182,114.968 329.5,119.5C 334.5,119.5 339.5,119.5 344.5,119.5C 344.5,124.5 344.5,129.5 344.5,134.5C 349.5,134.5 354.5,134.5 359.5,134.5C 359.5,144.5 359.5,154.5 359.5,164.5C 354.5,164.5 349.5,164.5 344.5,164.5C 344.5,167.833 344.5,171.167 344.5,174.5C 342.066,171.151 339.733,167.651 337.5,164C 334.421,163.027 331.421,162.194 328.5,161.5C 329.404,160.791 329.737,159.791 329.5,158.5C 333.294,155.007 334.461,150.674 333,145.5C 331.59,142.211 329.09,140.544 325.5,140.5C 325.5,128.5 325.5,116.5 325.5,104.5 Z"/></g>
<g><path style="opacity:1" fill="#4f4799" d="M 54.5,187.5 C 54.8925,189.284 55.5592,190.95 56.5,192.5C 55.9484,194.703 54.6151,195.536 52.5,195C 48.2119,189.59 44.0452,184.09 40,178.5C 39.5,199.497 39.3334,220.497 39.5,241.5C 37.2335,243.763 34.5668,244.096 31.5,242.5C 30.501,230.185 30.1676,217.851 30.5,205.5C 28.8333,205.5 27.1667,205.5 25.5,205.5C 25.8324,217.851 25.499,230.185 24.5,242.5C 22.2324,243.544 19.8991,243.711 17.5,243C 16.6725,221.573 16.1725,200.073 16,178.5C 11.9548,184.09 7.7881,189.59 3.5,195C 2.55198,195.483 1.55198,195.649 0.5,195.5C 0.337876,193.473 0.504543,191.473 1,189.5C 5.72824,181.611 10.2282,173.611 14.5,165.5C 14.5,164.833 14.8333,164.5 15.5,164.5C 18.6786,162.691 22.1786,161.691 26,161.5C 30.1576,162.073 34.3243,162.573 38.5,163C 40,164.5 41.5,166 43,167.5C 46.2974,174.593 50.1307,181.26 54.5,187.5 Z"/></g>
<g><path style="opacity:1" fill="#f87821" d="M 240.5,165.5 C 244.262,172.698 248.262,179.698 252.5,186.5C 251.471,188.517 250.471,190.517 249.5,192.5C 245.777,188.08 242.277,183.414 239,178.5C 238.833,199.841 238.333,221.174 237.5,242.5C 234.966,243.788 232.466,243.788 230,242.5C 229.5,230.171 229.333,217.838 229.5,205.5C 227.5,205.5 225.5,205.5 223.5,205.5C 223.667,217.505 223.5,229.505 223,241.5C 219.482,244.496 216.982,243.829 215.5,239.5C 215.667,218.831 215.5,198.164 215,177.5C 211.084,182.996 207.418,188.663 204,194.5C 202.708,195.791 201.542,195.791 200.5,194.5C 200.5,191.833 200.5,189.167 200.5,186.5C 201.458,186.047 202.292,185.381 203,184.5C 205.76,178.644 208.76,172.977 212,167.5C 217.711,161.883 224.545,160.05 232.5,162C 235.749,162.003 238.416,163.17 240.5,165.5 Z"/></g>
<g><path style="opacity:1" fill="#0daeaa" d="M 328.5,161.5 C 331.421,162.194 334.421,163.027 337.5,164C 339.733,167.651 342.066,171.151 344.5,174.5C 346.72,179.272 349.22,183.938 352,188.5C 352.497,190.81 352.663,193.143 352.5,195.5C 349.737,195.256 347.571,193.923 346,191.5C 343.247,186.992 340.247,182.659 337,178.5C 336.667,199.833 336.333,221.167 336,242.5C 333.959,243.423 331.792,243.756 329.5,243.5C 327.55,231.082 326.883,218.415 327.5,205.5C 325.833,205.5 324.167,205.5 322.5,205.5C 322.667,217.505 322.5,229.505 322,241.5C 319.333,244.167 316.667,244.167 314,241.5C 313.501,237.179 313.334,232.846 313.5,228.5C 313.667,211.497 313.5,194.497 313,177.5C 309.622,184.283 305.289,190.283 300,195.5C 299.283,194.956 298.783,194.289 298.5,193.5C 298.448,191.097 298.781,188.764 299.5,186.5C 303.404,180.366 307.071,174.032 310.5,167.5C 315.22,162.149 321.22,160.149 328.5,161.5 Z"/></g>
<g><path style="opacity:1" fill="#0f95fe" d="M 153.5,186.5 C 153.008,188.819 152.008,190.819 150.5,192.5C 146.777,188.08 143.277,183.414 140,178.5C 139.5,190.495 139.333,202.495 139.5,214.5C 139.666,223.839 139.5,233.173 139,242.5C 136.534,243.788 134.034,243.788 131.5,242.5C 130.501,230.185 130.168,217.851 130.5,205.5C 128.833,205.5 127.167,205.5 125.5,205.5C 125.667,216.838 125.5,228.172 125,239.5C 124.05,242.892 121.883,244.059 118.5,243C 117.177,242.184 116.511,241.017 116.5,239.5C 116.667,218.831 116.5,198.164 116,177.5C 112.127,183.946 107.793,189.946 103,195.5C 101.989,194.944 101.156,194.278 100.5,193.5C 100.394,190.921 101.061,188.588 102.5,186.5C 105.988,180.194 109.488,173.86 113,167.5C 114.039,166.29 115.206,165.29 116.5,164.5C 119.111,162.518 122.111,161.518 125.5,161.5C 129.829,162.037 134.162,162.537 138.5,163C 139.667,164.167 140.833,165.333 142,166.5C 145.608,173.393 149.441,180.059 153.5,186.5 Z"/></g>
<g><path style="opacity:1" fill="#a6146d" d="M 88.5,164.5 C 92.6703,172.18 97.337,179.513 102.5,186.5C 101.061,188.588 100.394,190.921 100.5,193.5C 96.5297,188.011 92.6963,182.344 89,176.5C 88.1251,177.873 87.6251,179.373 87.5,181C 89.2636,189.554 91.2636,198.054 93.5,206.5C 93.3918,207.442 93.0585,208.275 92.5,209C 91.1279,209.402 89.7946,209.902 88.5,210.5C 87.52,213.086 87.1866,215.753 87.5,218.5C 87.6663,225.841 87.4997,233.174 87,240.5C 85.5219,243.993 83.5219,244.326 81,241.5C 80.5002,231.172 80.3335,220.839 80.5,210.5C 79.1667,210.5 77.8333,210.5 76.5,210.5C 76.6665,220.839 76.4998,231.172 76,241.5C 72.1637,244.493 69.997,243.493 69.5,238.5C 69.5,228.833 69.5,219.167 69.5,209.5C 67.8333,209.5 66.1667,209.5 64.5,209.5C 65.0386,201.341 66.5386,193.341 69,185.5C 69.7901,182.366 69.4568,179.366 68,176.5C 64.691,182.294 60.8577,187.627 56.5,192.5C 55.5592,190.95 54.8925,189.284 54.5,187.5C 59.1176,179.771 64.1176,172.271 69.5,165C 75.8246,164.5 82.1579,164.334 88.5,164.5 Z"/></g>
<g><path style="opacity:1" fill="#eff0f0" d="M 119.5,147.5 C 118.431,152.543 120.097,156.377 124.5,159C 131.869,160.134 135.869,156.967 136.5,149.5C 140.833,149.5 145.167,149.5 149.5,149.5C 149.5,154.5 149.5,159.5 149.5,164.5C 154.5,164.5 159.5,164.5 164.5,164.5C 164.5,159.5 164.5,154.5 164.5,149.5C 166.199,149.527 167.533,150.194 168.5,151.5C 168.261,156.495 170.261,160.162 174.5,162.5C 177.266,163.293 181.266,163.96 186.5,164.5C 180.491,164.334 174.491,164.501 168.5,165C 163.355,172.146 158.355,179.312 153.5,186.5C 149.441,180.059 145.608,173.393 142,166.5C 140.833,165.333 139.667,164.167 138.5,163C 134.162,162.537 129.829,162.037 125.5,161.5C 122.111,161.518 119.111,162.518 116.5,164.5C 112.749,164.317 108.749,164.317 104.5,164.5C 104.5,159.5 104.5,154.5 104.5,149.5C 108.833,149.5 113.167,149.5 117.5,149.5C 117.351,150.552 117.517,151.552 118,152.5C 118.198,150.618 118.698,148.952 119.5,147.5 Z"/></g>
<g><path style="opacity:1" fill="#fcfbfb" d="M 227.5,134.5 C 231.5,134.5 235.5,134.5 239.5,134.5C 239.5,139.5 239.5,144.5 239.5,149.5C 244.5,149.5 249.5,149.5 254.5,149.5C 254.5,154.5 254.5,159.5 254.5,164.5C 249.737,164.226 245.07,164.559 240.5,165.5C 238.416,163.17 235.749,162.003 232.5,162C 224.545,160.05 217.711,161.883 212,167.5C 208.76,172.977 205.76,178.644 203,184.5C 202.292,185.381 201.458,186.047 200.5,186.5C 195.833,179.167 191.167,171.833 186.5,164.5C 181.266,163.96 177.266,163.293 174.5,162.5C 183.259,162.684 187.259,158.351 186.5,149.5C 189.167,149.5 191.833,149.5 194.5,149.5C 194.5,154.5 194.5,159.5 194.5,164.5C 199.5,164.5 204.5,164.5 209.5,164.5C 209.5,159.5 209.5,154.5 209.5,149.5C 211.833,149.5 214.167,149.5 216.5,149.5C 216.351,148.448 216.517,147.448 217,146.5C 217.191,148.708 217.691,150.708 218.5,152.5C 220.885,158.688 225.219,160.522 231.5,158C 237.57,150.922 236.57,145.088 228.5,140.5C 227.534,138.604 227.201,136.604 227.5,134.5 Z"/></g>
<g><path style="opacity:1" fill="#d7222b" d="M 284.5,164.5 C 289.5,171.833 294.5,179.167 299.5,186.5C 298.781,188.764 298.448,191.097 298.5,193.5C 293.785,188.426 289.785,182.76 286.5,176.5C 285.544,177.865 284.878,179.365 284.5,181C 286.373,189.365 288.373,197.699 290.5,206C 289.877,209.161 287.877,210.661 284.5,210.5C 284.5,215.833 284.5,221.167 284.5,226.5C 284.666,231.511 284.499,236.511 284,241.5C 281.733,242.935 279.733,242.602 278,240.5C 277.5,230.172 277.334,219.839 277.5,209.5C 276.167,209.5 274.833,209.5 273.5,209.5C 273.667,220.172 273.5,230.839 273,241.5C 271.19,244.018 269.357,244.018 267.5,241.5C 267.5,230.833 267.5,220.167 267.5,209.5C 266.167,209.5 264.833,209.5 263.5,209.5C 262.007,208.688 261.34,207.355 261.5,205.5C 263.309,197.62 265.309,189.786 267.5,182C 267.062,180.08 266.395,178.246 265.5,176.5C 261.374,181.79 257.874,187.457 255,193.5C 253.3,195.299 251.467,195.632 249.5,194.5C 249.5,193.833 249.5,193.167 249.5,192.5C 250.471,190.517 251.471,188.517 252.5,186.5C 257.141,179.518 261.807,172.518 266.5,165.5C 272.463,164.504 278.463,164.171 284.5,164.5 Z"/></g>
<g><path style="opacity:1" fill="#dc2447" d="M 186.5,164.5 C 191.167,171.833 195.833,179.167 200.5,186.5C 200.5,189.167 200.5,191.833 200.5,194.5C 196.109,188.741 191.943,182.741 188,176.5C 187.077,178.034 186.577,179.701 186.5,181.5C 189.127,190.673 190.794,200.006 191.5,209.5C 189.585,209.216 187.919,209.549 186.5,210.5C 186.666,220.506 186.5,230.506 186,240.5C 184.102,242.684 181.936,243.017 179.5,241.5C 179.5,231.167 179.5,220.833 179.5,210.5C 178.167,210.5 176.833,210.5 175.5,210.5C 175.666,220.839 175.5,231.172 175,241.5C 173,244.167 171,244.167 169,241.5C 168.5,231.172 168.334,220.839 168.5,210.5C 167.081,209.549 165.415,209.216 163.5,209.5C 164.518,200.086 166.185,190.752 168.5,181.5C 168.423,179.701 167.923,178.034 167,176.5C 163.028,182.638 158.862,188.638 154.5,194.5C 152.167,195.941 150.834,195.275 150.5,192.5C 152.008,190.819 153.008,188.819 153.5,186.5C 158.355,179.312 163.355,172.146 168.5,165C 174.491,164.501 180.491,164.334 186.5,164.5 Z"/></g>
<g><path style="opacity:1" fill="#f5f7f8" d="M 100.5,193.5 C 101.156,194.278 101.989,194.944 103,195.5C 107.793,189.946 112.127,183.946 116,177.5C 116.5,198.164 116.667,218.831 116.5,239.5C 112.5,239.5 108.5,239.5 104.5,239.5C 104.334,234.821 104.501,230.155 105,225.5C 108.006,224.531 111.173,224.198 114.5,224.5C 114.5,219.5 114.5,214.5 114.5,209.5C 111.167,209.5 107.833,209.5 104.5,209.5C 105.084,212.983 104.251,215.983 102,218.5C 101.309,216.109 100.309,216.109 99,218.5C 98.6667,218.167 98.3333,217.833 98,217.5C 95.6094,220.597 92.776,222.763 89.5,224C 91.8333,221.667 94.1667,219.333 96.5,217C 95.9747,216.308 95.3081,215.808 94.5,215.5C 93.0333,215.723 91.5333,216.056 90,216.5C 89.2888,214.633 89.7888,213.133 91.5,212C 90.552,211.517 89.552,211.351 88.5,211.5C 88.8016,214.059 88.4682,216.393 87.5,218.5C 87.1866,215.753 87.52,213.086 88.5,210.5C 89.7946,209.902 91.1279,209.402 92.5,209C 93.0585,208.275 93.3918,207.442 93.5,206.5C 91.2636,198.054 89.2636,189.554 87.5,181C 87.6251,179.373 88.1251,177.873 89,176.5C 92.6963,182.344 96.5297,188.011 100.5,193.5 Z"/></g>
<g><path style="opacity:1" fill="#f1f0f1" d="M 168.5,210.5 C 164.446,210.21 163.946,210.877 167,212.5C 167.499,216.486 167.666,220.486 167.5,224.5C 166.5,224.5 165.5,224.5 164.5,224.5C 164.5,229.5 164.5,234.5 164.5,239.5C 159.5,239.5 154.5,239.5 149.5,239.5C 149.5,234.5 149.5,229.5 149.5,224.5C 146.5,224.5 143.5,224.5 140.5,224.5C 140.813,220.958 140.479,217.625 139.5,214.5C 139.333,202.495 139.5,190.495 140,178.5C 143.277,183.414 146.777,188.08 150.5,192.5C 150.834,195.275 152.167,195.941 154.5,194.5C 158.862,188.638 163.028,182.638 167,176.5C 167.923,178.034 168.423,179.701 168.5,181.5C 166.185,190.752 164.518,200.086 163.5,209.5C 165.415,209.216 167.081,209.549 168.5,210.5 Z"/></g>
<g><path style="opacity:1" fill="#f4f3f3" d="M 263.5,209.5 C 264.209,210.404 265.209,210.737 266.5,210.5C 266.5,220.833 266.5,231.167 266.5,241.5C 262.827,239.682 258.827,239.016 254.5,239.5C 249.5,239.5 244.5,239.5 239.5,239.5C 239.5,234.5 239.5,229.5 239.5,224.5C 244.5,224.5 249.5,224.5 254.5,224.5C 254.5,221.833 254.5,219.167 254.5,216.5C 253.5,216.5 252.5,216.5 251.5,216.5C 251.413,213.402 251.913,213.068 253,215.5C 254.319,213.75 254.819,211.75 254.5,209.5C 251.606,209.042 249.106,209.709 247,211.5C 245.333,208.833 243.667,208.833 242,211.5C 241.683,209.699 241.016,209.366 240,210.5C 239.501,205.177 239.334,199.844 239.5,194.5C 243.131,195.745 246.464,195.745 249.5,194.5C 251.467,195.632 253.3,195.299 255,193.5C 257.874,187.457 261.374,181.79 265.5,176.5C 266.395,178.246 267.062,180.08 267.5,182C 265.309,189.786 263.309,197.62 261.5,205.5C 261.34,207.355 262.007,208.688 263.5,209.5 Z"/></g>
<g><path style="opacity:1" fill="#f7f8f8" d="M 359.5,164.5 C 359.5,191.5 359.5,218.5 359.5,245.5C 349.5,245.5 339.5,245.5 329.5,245.5C 329.5,244.833 329.5,244.167 329.5,243.5C 331.792,243.756 333.959,243.423 336,242.5C 336.333,221.167 336.667,199.833 337,178.5C 340.247,182.659 343.247,186.992 346,191.5C 347.571,193.923 349.737,195.256 352.5,195.5C 352.663,193.143 352.497,190.81 352,188.5C 349.22,183.938 346.72,179.272 344.5,174.5C 344.5,171.167 344.5,167.833 344.5,164.5C 349.5,164.5 354.5,164.5 359.5,164.5 Z"/></g>
<g><path style="opacity:1" fill="#f4f4f4" d="M 69.5,238.5 C 68.8485,239.091 68.1818,239.757 67.5,240.5C 66.914,240.291 66.414,239.957 66,239.5C 64.3257,240.676 62.8257,242.01 61.5,243.5C 61.3309,242.603 60.9976,241.603 60.5,240.5C 59.0476,241.94 58.0476,243.606 57.5,245.5C 53.1667,245.5 48.8333,245.5 44.5,245.5C 44.5,243.5 44.5,241.5 44.5,239.5C 42.4458,239.365 40.7791,240.032 39.5,241.5C 39.3334,220.497 39.5,199.497 40,178.5C 44.0452,184.09 48.2119,189.59 52.5,195C 54.6151,195.536 55.9484,194.703 56.5,192.5C 60.8577,187.627 64.691,182.294 68,176.5C 69.4568,179.366 69.7901,182.366 69,185.5C 66.5386,193.341 65.0386,201.341 64.5,209.5C 66.1667,209.5 67.8333,209.5 69.5,209.5C 69.5,219.167 69.5,228.833 69.5,238.5 Z"/></g>
<g><path style="opacity:1" fill="#f3eeec" d="M 200.5,194.5 C 201.542,195.791 202.708,195.791 204,194.5C 207.418,188.663 211.084,182.996 215,177.5C 215.5,198.164 215.667,218.831 215.5,239.5C 213.5,239.5 211.5,239.5 209.5,239.5C 209.666,235.154 209.499,230.821 209,226.5C 207.129,227.668 205.629,227.168 204.5,225C 201.833,224.333 199.167,224.333 196.5,225C 198.975,226.743 198.975,227.743 196.5,228C 193.955,224.41 191.288,220.91 188.5,217.5C 189.355,216.707 190.189,217.04 191,218.5C 191.317,216.699 191.984,216.366 193,217.5C 193.345,215.799 192.678,214.466 191,213.5C 189.816,215.654 188.65,215.32 187.5,212.5C 188.981,211.056 188.648,210.389 186.5,210.5C 187.919,209.549 189.585,209.216 191.5,209.5C 190.794,200.006 189.127,190.673 186.5,181.5C 186.577,179.701 187.077,178.034 188,176.5C 191.943,182.741 196.109,188.741 200.5,194.5 Z"/></g>
<g><path style="opacity:1" fill="#efefef" d="M 298.5,193.5 C 298.783,194.289 299.283,194.956 300,195.5C 305.289,190.283 309.622,184.283 313,177.5C 313.5,194.497 313.667,211.497 313.5,228.5C 312.518,231.962 312.185,235.629 312.5,239.5C 308.167,239.5 303.833,239.5 299.5,239.5C 299.191,234.335 299.024,229.335 299,224.5C 296.686,231.137 295.686,231.137 296,224.5C 293.719,231.171 292.719,231.171 293,224.5C 292.167,225.5 291.333,226.5 290.5,227.5C 290.331,226.603 289.998,225.603 289.5,224.5C 288.808,225.025 288.308,225.692 288,226.5C 286.908,224.069 285.741,224.069 284.5,226.5C 284.5,221.167 284.5,215.833 284.5,210.5C 287.877,210.661 289.877,209.161 290.5,206C 288.373,197.699 286.373,189.365 284.5,181C 284.878,179.365 285.544,177.865 286.5,176.5C 289.785,182.76 293.785,188.426 298.5,193.5 Z"/></g>
<g><path style="opacity:1" fill="#f4f4f4" d="M -0.5,164.5 C 4.59467,164.221 9.59467,164.555 14.5,165.5C 10.2282,173.611 5.72824,181.611 1,189.5C 0.504543,191.473 0.337876,193.473 0.5,195.5C 1.55198,195.649 2.55198,195.483 3.5,195C 7.7881,189.59 11.9548,184.09 16,178.5C 16.1725,200.073 16.6725,221.573 17.5,243C 19.8991,243.711 22.2324,243.544 24.5,242.5C 25.499,230.185 25.8324,217.851 25.5,205.5C 27.1667,205.5 28.8333,205.5 30.5,205.5C 30.1676,217.851 30.501,230.185 31.5,242.5C 34.5668,244.096 37.2335,243.763 39.5,241.5C 40.7791,240.032 42.4458,239.365 44.5,239.5C 44.5,241.5 44.5,243.5 44.5,245.5C 29.5,245.5 14.5,245.5 -0.5,245.5C -0.5,218.5 -0.5,191.5 -0.5,164.5 Z"/></g>
<g><path style="opacity:1" fill="#eeb1bd" d="M 263.5,209.5 C 264.833,209.5 266.167,209.5 267.5,209.5C 267.5,220.167 267.5,230.833 267.5,241.5C 267.167,241.5 266.833,241.5 266.5,241.5C 266.5,231.167 266.5,220.833 266.5,210.5C 265.209,210.737 264.209,210.404 263.5,209.5 Z"/></g>
<g><path style="opacity:1" fill="#f5f5f5" d="M 139.5,214.5 C 140.479,217.625 140.813,220.958 140.5,224.5C 143.5,224.5 146.5,224.5 149.5,224.5C 149.5,229.5 149.5,234.5 149.5,239.5C 154.5,239.5 159.5,239.5 164.5,239.5C 164.5,234.5 164.5,229.5 164.5,224.5C 165.5,224.5 166.5,224.5 167.5,224.5C 167.666,220.486 167.499,216.486 167,212.5C 163.946,210.877 164.446,210.21 168.5,210.5C 168.334,220.839 168.5,231.172 169,241.5C 171,244.167 173,244.167 175,241.5C 175.5,231.172 175.666,220.839 175.5,210.5C 176.833,210.5 178.167,210.5 179.5,210.5C 179.5,220.833 179.5,231.167 179.5,241.5C 179.5,242.833 179.5,244.167 179.5,245.5C 138.833,245.5 98.1667,245.5 57.5,245.5C 58.0476,243.606 59.0476,241.94 60.5,240.5C 60.9976,241.603 61.3309,242.603 61.5,243.5C 62.8257,242.01 64.3257,240.676 66,239.5C 66.414,239.957 66.914,240.291 67.5,240.5C 68.1818,239.757 68.8485,239.091 69.5,238.5C 69.997,243.493 72.1637,244.493 76,241.5C 76.4998,231.172 76.6665,220.839 76.5,210.5C 77.8333,210.5 79.1667,210.5 80.5,210.5C 80.3335,220.839 80.5002,231.172 81,241.5C 83.5219,244.326 85.5219,243.993 87,240.5C 87.4997,233.174 87.6663,225.841 87.5,218.5C 88.4682,216.393 88.8016,214.059 88.5,211.5C 89.552,211.351 90.552,211.517 91.5,212C 89.7888,213.133 89.2888,214.633 90,216.5C 91.5333,216.056 93.0333,215.723 94.5,215.5C 95.3081,215.808 95.9747,216.308 96.5,217C 94.1667,219.333 91.8333,221.667 89.5,224C 92.776,222.763 95.6094,220.597 98,217.5C 98.3333,217.833 98.6667,218.167 99,218.5C 100.309,216.109 101.309,216.109 102,218.5C 104.251,215.983 105.084,212.983 104.5,209.5C 107.833,209.5 111.167,209.5 114.5,209.5C 114.5,214.5 114.5,219.5 114.5,224.5C 111.173,224.198 108.006,224.531 105,225.5C 104.501,230.155 104.334,234.821 104.5,239.5C 108.5,239.5 112.5,239.5 116.5,239.5C 116.511,241.017 117.177,242.184 118.5,243C 121.883,244.059 124.05,242.892 125,239.5C 125.5,228.172 125.667,216.838 125.5,205.5C 127.167,205.5 128.833,205.5 130.5,205.5C 130.168,217.851 130.501,230.185 131.5,242.5C 134.034,243.788 136.534,243.788 139,242.5C 139.5,233.173 139.666,223.839 139.5,214.5 Z"/></g>
<g><path style="opacity:1" fill="#f9f7f6" d="M 249.5,192.5 C 249.5,193.167 249.5,193.833 249.5,194.5C 246.464,195.745 243.131,195.745 239.5,194.5C 239.334,199.844 239.501,205.177 240,210.5C 241.016,209.366 241.683,209.699 242,211.5C 243.667,208.833 245.333,208.833 247,211.5C 249.106,209.709 251.606,209.042 254.5,209.5C 254.819,211.75 254.319,213.75 253,215.5C 251.913,213.068 251.413,213.402 251.5,216.5C 252.5,216.5 253.5,216.5 254.5,216.5C 254.5,219.167 254.5,221.833 254.5,224.5C 249.5,224.5 244.5,224.5 239.5,224.5C 239.5,229.5 239.5,234.5 239.5,239.5C 244.5,239.5 249.5,239.5 254.5,239.5C 254.5,241.5 254.5,243.5 254.5,245.5C 229.5,245.5 204.5,245.5 179.5,245.5C 179.5,244.167 179.5,242.833 179.5,241.5C 181.936,243.017 184.102,242.684 186,240.5C 186.5,230.506 186.666,220.506 186.5,210.5C 188.648,210.389 188.981,211.056 187.5,212.5C 188.65,215.32 189.816,215.654 191,213.5C 192.678,214.466 193.345,215.799 193,217.5C 191.984,216.366 191.317,216.699 191,218.5C 190.189,217.04 189.355,216.707 188.5,217.5C 191.288,220.91 193.955,224.41 196.5,228C 198.975,227.743 198.975,226.743 196.5,225C 199.167,224.333 201.833,224.333 204.5,225C 205.629,227.168 207.129,227.668 209,226.5C 209.499,230.821 209.666,235.154 209.5,239.5C 211.5,239.5 213.5,239.5 215.5,239.5C 216.982,243.829 219.482,244.496 223,241.5C 223.5,229.505 223.667,217.505 223.5,205.5C 225.5,205.5 227.5,205.5 229.5,205.5C 229.333,217.838 229.5,230.171 230,242.5C 232.466,243.788 234.966,243.788 237.5,242.5C 238.333,221.174 238.833,199.841 239,178.5C 242.277,183.414 245.777,188.08 249.5,192.5 Z"/></g>
<g><path style="opacity:1" fill="#f7f3f4" d="M 329.5,243.5 C 329.5,244.167 329.5,244.833 329.5,245.5C 304.5,245.5 279.5,245.5 254.5,245.5C 254.5,243.5 254.5,241.5 254.5,239.5C 258.827,239.016 262.827,239.682 266.5,241.5C 266.833,241.5 267.167,241.5 267.5,241.5C 269.357,244.018 271.19,244.018 273,241.5C 273.5,230.839 273.667,220.172 273.5,209.5C 274.833,209.5 276.167,209.5 277.5,209.5C 277.334,219.839 277.5,230.172 278,240.5C 279.733,242.602 281.733,242.935 284,241.5C 284.499,236.511 284.666,231.511 284.5,226.5C 285.741,224.069 286.908,224.069 288,226.5C 288.308,225.692 288.808,225.025 289.5,224.5C 289.998,225.603 290.331,226.603 290.5,227.5C 291.333,226.5 292.167,225.5 293,224.5C 292.719,231.171 293.719,231.171 296,224.5C 295.686,231.137 296.686,231.137 299,224.5C 299.024,229.335 299.191,234.335 299.5,239.5C 303.833,239.5 308.167,239.5 312.5,239.5C 312.185,235.629 312.518,231.962 313.5,228.5C 313.334,232.846 313.501,237.179 314,241.5C 316.667,244.167 319.333,244.167 322,241.5C 322.5,229.505 322.667,217.505 322.5,205.5C 324.167,205.5 325.833,205.5 327.5,205.5C 326.883,218.415 327.55,231.082 329.5,243.5 Z"/></g>
</svg>
